G04 DipTrace 2.4.0.2*
%INToasty_TopSilk.gbr*%
%MOIN*%
%ADD10C,0.0098*%
%ADD20C,0.0157*%
%ADD29C,0.0154*%
%ADD61C,0.0077*%
%FSLAX44Y44*%
G04*
G70*
G90*
G75*
G01*
%LNTopSilk*%
%LPD*%
X10486Y13181D2*
D10*
Y12669D1*
X7715Y8705D2*
Y8193D1*
X3388Y18443D2*
Y18955D1*
X4366Y3104D2*
X3737D1*
X4366Y3030D2*
X3737D1*
X4366D2*
Y3265D1*
X3737Y3030D2*
Y3265D1*
X10565Y3156D2*
X9935D1*
X10565Y3081D2*
X9935D1*
X10565D2*
Y3317D1*
X9935Y3081D2*
Y3317D1*
X3388Y14443D2*
Y14955D1*
X15986Y3764D2*
Y4472D1*
X16616Y3764D2*
Y4472D1*
D20*
X16301Y3075D3*
X3100Y728D2*
D10*
Y20886D1*
X148D1*
Y728D1*
X3100D1*
G36*
X2753Y15570D2*
X3068D1*
Y15887D1*
X2753D1*
Y15570D1*
G37*
G36*
Y11634D2*
X3068D1*
Y11948D1*
X2753D1*
Y11634D1*
G37*
G36*
Y13603D2*
X3068D1*
Y13917D1*
X2753D1*
Y13603D1*
G37*
G36*
Y17540D2*
X3068D1*
Y17854D1*
X2753D1*
Y17540D1*
G37*
G36*
Y19507D2*
X3068D1*
Y19824D1*
X2753D1*
Y19507D1*
G37*
G36*
Y1791D2*
X3068D1*
Y2107D1*
X2753D1*
Y1791D1*
G37*
G36*
Y3760D2*
X3068D1*
Y4074D1*
X2753D1*
Y3760D1*
G37*
G36*
Y9666D2*
X3068D1*
Y9979D1*
X2753D1*
Y9666D1*
G37*
G36*
Y5727D2*
X3068D1*
Y6044D1*
X2753D1*
Y5727D1*
G37*
G36*
Y7697D2*
X3068D1*
Y8013D1*
X2753D1*
Y7697D1*
G37*
X14875Y13625D2*
D10*
X15875D1*
Y17625D1*
X14875D1*
Y13625D1*
X10969Y4199D2*
G02X10969Y4199I2362J0D01*
G01*
D29*
X14904Y8007D3*
X15406Y7915D2*
D10*
Y6734D1*
X15602D1*
Y7915D1*
X15406D1*
X13500Y9000D2*
Y22000D1*
X12500Y23000D1*
X6500D1*
X5500Y22000D1*
Y9000D1*
X13500D1*
X4768Y5258D2*
X9335D1*
Y1911D1*
X4768D1*
Y5258D1*
X6755Y11038D2*
D61*
X6731Y11086D1*
X6683Y11134D1*
X6635Y11157D1*
X6540D1*
X6492Y11134D1*
X6444Y11086D1*
X6420Y11038D1*
X6396Y10966D1*
Y10846D1*
X6420Y10775D1*
X6444Y10727D1*
X6492Y10679D1*
X6540Y10655D1*
X6635D1*
X6683Y10679D1*
X6731Y10727D1*
X6755Y10775D1*
X6909Y11061D2*
X6957Y11086D1*
X7029Y11157D1*
Y10655D1*
X9712Y13833D2*
X9689Y13881D1*
X9641Y13929D1*
X9593Y13953D1*
X9497D1*
X9449Y13929D1*
X9402Y13881D1*
X9377Y13833D1*
X9354Y13761D1*
Y13642D1*
X9377Y13570D1*
X9402Y13522D1*
X9449Y13475D1*
X9497Y13450D1*
X9593D1*
X9641Y13475D1*
X9689Y13522D1*
X9712Y13570D1*
X9891Y13833D2*
Y13857D1*
X9915Y13905D1*
X9939Y13928D1*
X9987Y13952D1*
X10082D1*
X10130Y13928D1*
X10154Y13905D1*
X10178Y13857D1*
Y13809D1*
X10154Y13761D1*
X10106Y13690D1*
X9867Y13450D1*
X10202D1*
X4041Y7146D2*
X4017Y7194D1*
X3969Y7242D1*
X3922Y7266D1*
X3826D1*
X3778Y7242D1*
X3730Y7194D1*
X3706Y7146D1*
X3682Y7074D1*
Y6955D1*
X3706Y6883D1*
X3730Y6835D1*
X3778Y6788D1*
X3826Y6763D1*
X3922D1*
X3969Y6788D1*
X4017Y6835D1*
X4041Y6883D1*
X4243Y7265D2*
X4506D1*
X4363Y7074D1*
X4435D1*
X4482Y7050D1*
X4506Y7026D1*
X4530Y6955D1*
Y6907D1*
X4506Y6835D1*
X4458Y6787D1*
X4387Y6763D1*
X4315D1*
X4243Y6787D1*
X4220Y6811D1*
X4195Y6859D1*
X6929Y9357D2*
X6905Y9404D1*
X6857Y9453D1*
X6809Y9476D1*
X6714D1*
X6666Y9453D1*
X6618Y9404D1*
X6594Y9357D1*
X6570Y9285D1*
Y9165D1*
X6594Y9094D1*
X6618Y9046D1*
X6666Y8998D1*
X6714Y8974D1*
X6809D1*
X6857Y8998D1*
X6905Y9046D1*
X6929Y9094D1*
X7323Y8974D2*
Y9476D1*
X7083Y9141D1*
X7442D1*
X4031Y19607D2*
X4007Y19654D1*
X3959Y19703D1*
X3912Y19726D1*
X3816D1*
X3768Y19703D1*
X3720Y19654D1*
X3696Y19607D1*
X3672Y19535D1*
Y19415D1*
X3696Y19344D1*
X3720Y19296D1*
X3768Y19248D1*
X3816Y19224D1*
X3912D1*
X3959Y19248D1*
X4007Y19296D1*
X4031Y19344D1*
X4472Y19726D2*
X4234D1*
X4210Y19511D1*
X4234Y19535D1*
X4305Y19559D1*
X4377D1*
X4449Y19535D1*
X4497Y19487D1*
X4520Y19415D1*
Y19368D1*
X4497Y19296D1*
X4449Y19248D1*
X4377Y19224D1*
X4305D1*
X4234Y19248D1*
X4210Y19272D1*
X4185Y19320D1*
X2894Y3260D2*
X2870Y3308D1*
X2822Y3356D1*
X2774Y3380D1*
X2679D1*
X2631Y3356D1*
X2583Y3308D1*
X2559Y3260D1*
X2535Y3189D1*
Y3069D1*
X2559Y2997D1*
X2583Y2949D1*
X2631Y2902D1*
X2679Y2877D1*
X2774D1*
X2822Y2902D1*
X2870Y2949D1*
X2894Y2997D1*
X3335Y3308D2*
X3311Y3356D1*
X3239Y3379D1*
X3192D1*
X3120Y3356D1*
X3072Y3284D1*
X3048Y3164D1*
Y3045D1*
X3072Y2949D1*
X3120Y2901D1*
X3192Y2877D1*
X3216D1*
X3287Y2901D1*
X3335Y2949D1*
X3359Y3021D1*
Y3045D1*
X3335Y3117D1*
X3287Y3164D1*
X3216Y3188D1*
X3192D1*
X3120Y3164D1*
X3072Y3117D1*
X3048Y3045D1*
X11330Y3312D2*
X11307Y3359D1*
X11259Y3407D1*
X11211Y3431D1*
X11115D1*
X11067Y3407D1*
X11020Y3359D1*
X10995Y3312D1*
X10972Y3240D1*
Y3120D1*
X10995Y3049D1*
X11020Y3000D1*
X11067Y2953D1*
X11115Y2929D1*
X11211D1*
X11259Y2953D1*
X11307Y3000D1*
X11330Y3049D1*
X11580Y2929D2*
X11820Y3430D1*
X11485D1*
X4031Y15607D2*
X4008Y15654D1*
X3959Y15703D1*
X3912Y15726D1*
X3816D1*
X3768Y15703D1*
X3721Y15654D1*
X3696Y15607D1*
X3673Y15535D1*
Y15415D1*
X3696Y15344D1*
X3721Y15296D1*
X3768Y15248D1*
X3816Y15224D1*
X3912D1*
X3959Y15248D1*
X4008Y15296D1*
X4031Y15344D1*
X4305Y15726D2*
X4234Y15702D1*
X4209Y15654D1*
Y15606D1*
X4234Y15559D1*
X4281Y15535D1*
X4377Y15511D1*
X4449Y15487D1*
X4496Y15439D1*
X4520Y15391D1*
Y15320D1*
X4496Y15272D1*
X4473Y15248D1*
X4401Y15224D1*
X4305D1*
X4234Y15248D1*
X4209Y15272D1*
X4186Y15320D1*
Y15391D1*
X4209Y15439D1*
X4258Y15487D1*
X4329Y15511D1*
X4424Y15535D1*
X4473Y15559D1*
X4496Y15606D1*
Y15654D1*
X4473Y15702D1*
X4401Y15726D1*
X4305D1*
X15932Y5953D2*
Y5450D1*
X16099D1*
X16171Y5475D1*
X16219Y5522D1*
X16243Y5570D1*
X16266Y5642D1*
Y5761D1*
X16243Y5833D1*
X16219Y5881D1*
X16171Y5929D1*
X16099Y5953D1*
X15932D1*
X16421Y5857D2*
X16469Y5881D1*
X16541Y5952D1*
Y5450D1*
X11681Y11126D2*
Y10624D1*
X12194Y11007D2*
X12170Y11054D1*
X12122Y11102D1*
X12075Y11126D1*
X11979D1*
X11931Y11102D1*
X11884Y11054D1*
X11859Y11007D1*
X11835Y10935D1*
Y10815D1*
X11859Y10743D1*
X11884Y10695D1*
X11931Y10648D1*
X11979Y10624D1*
X12075D1*
X12122Y10648D1*
X12170Y10695D1*
X12194Y10743D1*
X12349Y11030D2*
X12397Y11054D1*
X12469Y11125D1*
Y10624D1*
X8826Y6876D2*
Y6374D1*
X9339Y6757D2*
X9315Y6804D1*
X9267Y6852D1*
X9219Y6876D1*
X9124D1*
X9076Y6852D1*
X9028Y6804D1*
X9004Y6757D1*
X8980Y6685D1*
Y6565D1*
X9004Y6493D1*
X9028Y6445D1*
X9076Y6398D1*
X9124Y6374D1*
X9219D1*
X9267Y6398D1*
X9315Y6445D1*
X9339Y6493D1*
X9517Y6756D2*
Y6780D1*
X9541Y6828D1*
X9565Y6852D1*
X9613Y6875D1*
X9709D1*
X9756Y6852D1*
X9780Y6828D1*
X9804Y6780D1*
Y6732D1*
X9780Y6684D1*
X9732Y6613D1*
X9493Y6374D1*
X9828D1*
X1499Y21618D2*
Y21236D1*
X1475Y21164D1*
X1451Y21140D1*
X1403Y21116D1*
X1355D1*
X1308Y21140D1*
X1284Y21164D1*
X1260Y21236D1*
Y21283D1*
X1678Y21498D2*
Y21522D1*
X1701Y21570D1*
X1725Y21594D1*
X1773Y21618D1*
X1869D1*
X1916Y21594D1*
X1940Y21570D1*
X1965Y21522D1*
Y21474D1*
X1940Y21426D1*
X1893Y21355D1*
X1653Y21116D1*
X1988D1*
X15000Y18751D2*
Y18368D1*
X14976Y18297D1*
X14952Y18273D1*
X14904Y18249D1*
X14856D1*
X14809Y18273D1*
X14785Y18297D1*
X14761Y18368D1*
Y18416D1*
X15250Y18249D2*
X15489Y18750D1*
X15154D1*
X12805Y7293D2*
Y6791D1*
X13092D1*
X13582Y7221D2*
X13534Y7269D1*
X13462Y7293D1*
X13367D1*
X13295Y7269D1*
X13247Y7221D1*
Y7174D1*
X13271Y7126D1*
X13295Y7102D1*
X13342Y7078D1*
X13486Y7030D1*
X13534Y7006D1*
X13558Y6982D1*
X13582Y6935D1*
Y6863D1*
X13534Y6815D1*
X13462Y6791D1*
X13367D1*
X13295Y6815D1*
X13247Y6863D1*
X13736Y7197D2*
X13784Y7221D1*
X13856Y7293D1*
Y6791D1*
X15310Y8817D2*
X15263Y8793D1*
X15215Y8745D1*
X15191Y8697D1*
X15167Y8625D1*
Y8506D1*
X15191Y8434D1*
X15215Y8387D1*
X15263Y8338D1*
X15310Y8315D1*
X15406D1*
X15454Y8338D1*
X15501Y8387D1*
X15525Y8434D1*
X15550Y8506D1*
Y8625D1*
X15525Y8697D1*
X15501Y8745D1*
X15454Y8793D1*
X15406Y8817D1*
X15310D1*
X15382Y8410D2*
X15525Y8267D1*
X15704Y8720D2*
X15752Y8745D1*
X15824Y8816D1*
Y8314D1*
X3871Y12737D2*
X4086D1*
X4157Y12761D1*
X4182Y12785D1*
X4205Y12833D1*
Y12881D1*
X4182Y12928D1*
X4157Y12953D1*
X4086Y12976D1*
X3871D1*
Y12474D1*
X4038Y12737D2*
X4205Y12474D1*
X4360Y12880D2*
X4408Y12904D1*
X4480Y12976D1*
Y12474D1*
X6639Y4613D2*
X6854D1*
X6926Y4637D1*
X6950Y4661D1*
X6974Y4709D1*
Y4757D1*
X6950Y4804D1*
X6926Y4829D1*
X6854Y4852D1*
X6639D1*
Y4350D1*
X6807Y4613D2*
X6974Y4350D1*
X7153Y4732D2*
Y4756D1*
X7176Y4804D1*
X7200Y4828D1*
X7248Y4852D1*
X7344D1*
X7391Y4828D1*
X7415Y4804D1*
X7440Y4756D1*
Y4709D1*
X7415Y4661D1*
X7368Y4589D1*
X7128Y4350D1*
X7463D1*
X3777Y16737D2*
X3992D1*
X4064Y16761D1*
X4088Y16785D1*
X4112Y16833D1*
Y16881D1*
X4088Y16928D1*
X4064Y16953D1*
X3992Y16976D1*
X3777D1*
Y16474D1*
X3945Y16737D2*
X4112Y16474D1*
X4553Y16904D2*
X4530Y16952D1*
X4458Y16976D1*
X4410D1*
X4338Y16952D1*
X4290Y16880D1*
X4267Y16761D1*
Y16641D1*
X4290Y16546D1*
X4338Y16498D1*
X4410Y16474D1*
X4434D1*
X4505Y16498D1*
X4553Y16546D1*
X4577Y16618D1*
Y16641D1*
X4553Y16713D1*
X4505Y16761D1*
X4434Y16785D1*
X4410D1*
X4338Y16761D1*
X4290Y16713D1*
X4267Y16641D1*
X15263Y10237D2*
X15478D1*
X15550Y10261D1*
X15574Y10285D1*
X15598Y10333D1*
Y10381D1*
X15574Y10428D1*
X15550Y10453D1*
X15478Y10476D1*
X15263D1*
Y9974D1*
X15431Y10237D2*
X15598Y9974D1*
X15848D2*
X16087Y10476D1*
X15752D1*
X9195Y23732D2*
Y23374D1*
X9219Y23302D1*
X9267Y23254D1*
X9339Y23230D1*
X9387D1*
X9458Y23254D1*
X9507Y23302D1*
X9530Y23374D1*
Y23732D1*
X9685Y23636D2*
X9733Y23660D1*
X9805Y23732D1*
Y23230D1*
X3639Y4990D2*
Y4631D1*
X3663Y4560D1*
X3711Y4512D1*
X3783Y4488D1*
X3830D1*
X3902Y4512D1*
X3950Y4560D1*
X3974Y4631D1*
Y4990D1*
X4176D2*
X4439D1*
X4296Y4798D1*
X4368D1*
X4415Y4775D1*
X4439Y4751D1*
X4463Y4679D1*
Y4631D1*
X4439Y4560D1*
X4391Y4511D1*
X4320Y4488D1*
X4248D1*
X4176Y4511D1*
X4153Y4536D1*
X4128Y4583D1*
X16208Y14255D2*
X16160Y14208D1*
X16136Y14136D1*
Y14040D1*
X16160Y13968D1*
X16208Y13920D1*
X16256D1*
X16304Y13945D1*
X16327Y13968D1*
X16351Y14016D1*
X16399Y14160D1*
X16423Y14208D1*
X16447Y14231D1*
X16495Y14255D1*
X16567D1*
X16614Y14208D1*
X16639Y14136D1*
Y14040D1*
X16614Y13968D1*
X16567Y13920D1*
X16663Y16279D2*
X16160Y16087D1*
X16663Y15896D1*
X16495Y15968D2*
Y16207D1*
X16136Y14920D2*
X16639D1*
Y15136D1*
X16614Y15208D1*
X16590Y15231D1*
X16543Y15255D1*
X16471D1*
X16423Y15231D1*
X16399Y15208D1*
X16375Y15136D1*
X16351Y15208D1*
X16327Y15231D1*
X16280Y15255D1*
X16232D1*
X16184Y15231D1*
X16160Y15208D1*
X16136Y15136D1*
Y14920D1*
X16375D2*
Y15136D1*
X16267Y17267D2*
X16220Y17243D1*
X16172Y17195D1*
X16148Y17148D1*
Y17052D1*
X16172Y17004D1*
X16220Y16956D1*
X16267Y16932D1*
X16339Y16908D1*
X16459D1*
X16530Y16932D1*
X16579Y16956D1*
X16626Y17004D1*
X16650Y17052D1*
Y17148D1*
X16626Y17195D1*
X16579Y17243D1*
X16530Y17267D1*
X16459D1*
Y17148D1*
M02*
