M48
INCH
T01C0.019
T02C0.0354
T03C0.0433
T04C0.0512
T05C0.09
%
T01
X+014500Y+007000
X+011750Y+005500
X+009500Y+005500
X+009000Y+007000
X+007125Y+005625
X+008000Y+004250
X+006000Y+008000
X+007750Y+009500
X+008750Y+012250
X+009750Y+012000
X+011375Y+013875
X+007375Y+016375
T02
X+013331Y+002919
X+013331Y+005478
X+013000Y+010500
X+013000Y+011500
X+013000Y+012500
X+013000Y+013500
X+013000Y+014500
X+013000Y+015500
X+013000Y+016500
X+013000Y+017500
X+013000Y+018500
X+013000Y+019500
X+013000Y+020500
X+013000Y+021500
X+006000Y+021500
X+006000Y+020500
X+006000Y+019500
X+006000Y+018500
X+006000Y+017500
X+006000Y+016500
X+006000Y+015500
X+006000Y+014500
X+006000Y+013500
X+006000Y+012500
X+006000Y+011500
X+006000Y+010500
T03
X+014500Y+001000
X+013500Y+001000
X+012500Y+001000
X+011500Y+001000
X+010500Y+001000
X+009500Y+001000
X+008500Y+001000
X+007500Y+001000
X+006500Y+001000
X+005500Y+001000
X+006051Y+002699
X+007051Y+002699
X+008051Y+002699
X+015375Y+014125
X+015375Y+015125
X+015375Y+016125
X+015375Y+017125
T04
X+001801Y+001949
X+001801Y+003917
X+001801Y+005886
X+001801Y+007854
X+001801Y+009823
X+001801Y+011791
X+001801Y+013760
X+001801Y+015728
X+001801Y+017697
X+001801Y+019665
T05
X+016000Y+001000
X+004000Y+001000
X+004000Y+021000
X+016000Y+021000
T00
M30
