G04 DipTrace 2.4.0.2*
%INToasty_Top.gbr*%
%MOIN*%
%ADD14C,0.05*%
%ADD15C,0.012*%
%ADD17R,0.0394X0.0433*%
%ADD18R,0.0512X0.0591*%
%ADD19R,0.0709X0.063*%
%ADD21R,0.063X0.0315*%
%ADD23R,0.0984X0.0984*%
%ADD24C,0.0984*%
%ADD25R,0.0669X0.0669*%
%ADD26C,0.0669*%
%ADD27R,0.0591X0.0591*%
%ADD28C,0.0591*%
%ADD30R,0.0413X0.0256*%
%ADD31C,0.0591*%
%ADD32R,0.0748X0.0748*%
%ADD33C,0.0748*%
%ADD34C,0.04*%
%FSLAX44Y44*%
G04*
G70*
G90*
G75*
G01*
%LNTop*%
%LPD*%
X1801Y1949D2*
D14*
X2449D1*
X3000Y2500D1*
X3955D1*
X4051Y2596D1*
X5949D1*
X6051Y2699D1*
Y3199D1*
X6677Y3825D1*
X6053Y5949D2*
D15*
X6574D1*
X6750Y6125D1*
Y7375D1*
X7250Y7875D1*
Y8398D1*
X7301Y8449D1*
X8801Y10199D2*
X9324D1*
X9750Y10625D1*
Y12000D1*
Y12602D1*
X10073Y12925D1*
X8801Y10199D2*
X7699D1*
X7250Y9750D1*
Y8500D1*
X7301Y8449D1*
X6053Y5949D2*
Y5447D1*
X6250Y5250D1*
X9000D1*
X9250Y5000D1*
X11250D1*
X11750Y5500D1*
X15301Y9449D2*
Y11301D1*
X16625Y12625D1*
Y17875D1*
X13000Y21500D1*
X8100Y6449D2*
X7426D1*
X7250Y6625D1*
Y7375D1*
X7875Y8000D1*
Y9375D1*
X7750Y9500D1*
X10848Y10699D2*
X11324D1*
X11875Y11250D1*
Y14125D1*
X11625Y14375D1*
X7125D1*
X7032Y14468D1*
X6000Y15500D1*
Y19500D2*
X6250D1*
X7375Y18375D1*
Y16375D1*
X15375Y15125D2*
X14000Y16500D1*
Y18500D1*
X13000Y19500D1*
X15375Y16125D2*
X14375Y17125D1*
Y19125D1*
X13000Y20500D1*
Y15500D2*
X14000D1*
X15375Y14125D1*
X6053Y7449D2*
Y7949D1*
X6553Y8449D1*
X8801Y11699D2*
Y12250D1*
Y12402D1*
X9325Y12925D1*
X15051Y6951D2*
X14549D1*
X14500Y7000D1*
X10250Y3750D2*
X8500D1*
X8000Y4250D1*
X4051Y3699D2*
X2020D1*
X1801Y3917D1*
X4549Y18699D2*
Y19201D1*
X4250Y19500D1*
X1967D1*
X1801Y19665D1*
X4549Y14699D2*
Y15451D1*
X4250Y15750D1*
X1823D1*
X1801Y15728D1*
X8750Y12250D2*
X8801D1*
X6000Y8000D2*
X6053Y7949D1*
X10848Y11199D2*
X10324D1*
X10250Y11125D1*
Y8250D1*
X9000Y7000D1*
X8152D1*
X8100Y6949D1*
X11375Y13875D2*
Y13500D1*
X11500Y13375D1*
Y11375D1*
X11375Y11250D1*
X10900D1*
X10848Y11199D1*
X13000Y16500D2*
X12500Y16000D1*
Y7625D1*
X10375Y5500D1*
X9500D1*
X3801Y14699D2*
Y13801D1*
X3750Y13750D1*
X1811D1*
X1801Y13760D1*
X8051Y2699D2*
D14*
Y3199D1*
X7425Y3825D1*
X8051Y2699D2*
X10199D1*
X10250Y2648D1*
X5500Y1000D2*
Y1625D1*
X5625Y1750D1*
X7102D1*
X8051Y2699D1*
X13000Y10500D2*
Y6875D1*
X12375Y6250D1*
Y4125D1*
X11375Y3125D1*
Y2875D1*
X11125Y2625D1*
X10273D1*
X10250Y2648D1*
X13331Y2919D2*
X11375Y2875D1*
X13331Y2919D2*
D15*
X15772D1*
X16301Y3449D1*
X3801Y18699D2*
Y17701D1*
X3803Y17699D1*
X1803D1*
X1801Y17697D1*
X13331Y5478D2*
X15610D1*
X16301Y4787D1*
Y6980D1*
X15957Y7325D1*
X15051Y7699D2*
X15324D1*
X15875Y8250D1*
Y9275D1*
X16049Y9449D1*
X8100Y5949D2*
X10324D1*
X10875Y6500D1*
Y10172D1*
X10848Y10199D1*
X7125Y5625D2*
X7777D1*
X8100Y5949D1*
X13000Y18500D2*
X12250Y17750D1*
Y10750D1*
X11750Y10250D1*
X10900D1*
X10848Y10199D1*
X4549Y13699D2*
X4699D1*
X5000Y14000D1*
Y17750D1*
X5500Y18250D1*
Y20000D1*
X6000Y20500D1*
Y21500D2*
X5750D1*
X5250Y21000D1*
Y18398D1*
X4551Y17699D1*
X5053Y6449D2*
X2364D1*
X1801Y5886D1*
X6053Y6449D2*
X5053D1*
Y7118D2*
X2537D1*
X1801Y7854D1*
X6053Y6949D2*
X5222D1*
X5053Y7118D1*
X7659Y10591D2*
X7466D1*
X6500Y9625D1*
X1999D1*
X1801Y9823D1*
X8801Y10699D2*
X7768D1*
X7659Y10591D1*
Y11260D2*
X7510D1*
X7125Y10875D1*
Y10625D1*
X6375Y9875D1*
X5750D1*
X4250Y11375D1*
X2218D1*
X1801Y11791D1*
X8801Y11199D2*
X7720D1*
X7659Y11260D1*
D34*
X9750Y12000D3*
X11750Y5500D3*
X7750Y9500D3*
X7375Y16375D3*
X9000Y7000D3*
X11375Y13875D3*
X9500Y5500D3*
X7125Y5625D3*
X14500Y7000D3*
X8000Y4250D3*
X8750Y12250D3*
X6000Y8000D3*
D17*
X7659Y10591D3*
Y11260D3*
D18*
X10073Y12925D3*
X9325D3*
D17*
X5053Y6449D3*
Y7118D3*
D18*
X7301Y8449D3*
X6553D3*
X3801Y18699D3*
X4549D3*
D19*
X4051Y2596D3*
Y3699D3*
X10250Y2648D3*
Y3750D3*
D18*
X3801Y14699D3*
X4549D3*
D21*
X16301Y3449D3*
Y4787D3*
G36*
X9234Y11581D2*
Y11817D1*
X8368D1*
Y11581D1*
X9234D1*
G37*
G36*
Y11081D2*
Y11317D1*
X8368D1*
Y11081D1*
X9234D1*
G37*
G36*
Y10581D2*
Y10817D1*
X8368D1*
Y10581D1*
X9234D1*
G37*
G36*
Y10081D2*
Y10317D1*
X8368D1*
Y10081D1*
X9234D1*
G37*
G36*
X11281D2*
Y10317D1*
X10415D1*
Y10081D1*
X11281D1*
G37*
G36*
Y10581D2*
Y10817D1*
X10415D1*
Y10581D1*
X11281D1*
G37*
G36*
Y11081D2*
Y11317D1*
X10415D1*
Y11081D1*
X11281D1*
G37*
G36*
Y11581D2*
Y11817D1*
X10415D1*
Y11581D1*
X11281D1*
G37*
G36*
X6486Y7331D2*
Y7567D1*
X5620D1*
Y7331D1*
X6486D1*
G37*
G36*
Y6831D2*
Y7067D1*
X5620D1*
Y6831D1*
X6486D1*
G37*
G36*
Y6331D2*
Y6567D1*
X5620D1*
Y6331D1*
X6486D1*
G37*
G36*
Y5831D2*
Y6067D1*
X5620D1*
Y5831D1*
X6486D1*
G37*
G36*
X8533D2*
Y6067D1*
X7667D1*
Y5831D1*
X8533D1*
G37*
G36*
Y6331D2*
Y6567D1*
X7667D1*
Y6331D1*
X8533D1*
G37*
G36*
Y6831D2*
Y7067D1*
X7667D1*
Y6831D1*
X8533D1*
G37*
G36*
Y7331D2*
Y7567D1*
X7667D1*
Y7331D1*
X8533D1*
G37*
D23*
X1801Y1949D3*
D24*
Y3917D3*
Y5886D3*
Y7854D3*
Y9823D3*
Y11791D3*
Y13760D3*
Y15728D3*
Y17697D3*
Y19665D3*
D25*
X14500Y1000D3*
D26*
X13500D3*
X12500D3*
X11500D3*
X10500D3*
X9500D3*
X8500D3*
X7500D3*
X6500D3*
X5500D3*
D25*
X15375Y14125D3*
D26*
Y15125D3*
Y16125D3*
Y17125D3*
D27*
X13331Y2919D3*
D28*
Y5478D3*
D30*
X15051Y7699D3*
Y6951D3*
X15957Y7325D3*
D18*
X4549Y13699D3*
X3801D3*
X6677Y3825D3*
X7425D3*
X4551Y17699D3*
X3803D3*
X15301Y9449D3*
X16049D3*
D31*
X13000Y10500D3*
Y11500D3*
Y12500D3*
Y13500D3*
Y14500D3*
Y15500D3*
Y16500D3*
Y17500D3*
Y18500D3*
Y19500D3*
Y20500D3*
Y21500D3*
X6000D3*
Y20500D3*
Y19500D3*
Y18500D3*
Y17500D3*
Y16500D3*
Y15500D3*
Y14500D3*
Y13500D3*
Y12500D3*
Y11500D3*
Y10500D3*
D32*
X6051Y2699D3*
D33*
X7051D3*
X8051D3*
M02*
