G04 DipTrace 2.4.0.2*
%INToasty_Bottom.gbr*%
%MOIN*%
%ADD15C,0.012*%
%ADD16C,0.01*%
%ADD23R,0.0984X0.0984*%
%ADD24C,0.0984*%
%ADD25R,0.0669X0.0669*%
%ADD26C,0.0669*%
%ADD27R,0.0591X0.0591*%
%ADD28C,0.0591*%
%ADD31C,0.0591*%
%ADD32R,0.0748X0.0748*%
%ADD33C,0.0748*%
%ADD34C,0.04*%
%ADD62C,0.0093*%
%FSLAX44Y44*%
G04*
G70*
G90*
G75*
G01*
%LNBottom*%
%LPD*%
X6000Y12500D2*
D15*
X5500Y13000D1*
Y14750D1*
X5750Y15000D1*
X6750D1*
X9750Y12000D1*
X11750Y5500D2*
X12000D1*
X14250Y3250D1*
Y1750D1*
X13500Y1000D1*
X9500D2*
Y4875D1*
X10125Y5500D1*
Y12375D1*
X6000Y16500D1*
X10500Y1000D2*
Y12750D1*
X10375Y12875D1*
X10250D1*
X6625Y16500D1*
Y16875D1*
X6000Y17500D1*
X7750Y9500D2*
Y12750D1*
X6000Y14500D1*
X7375Y16375D2*
X9000Y14750D1*
X9375D1*
X10875Y13250D1*
Y5250D1*
X11500Y4625D1*
Y1000D1*
X9000Y7000D2*
X7500Y5500D1*
Y5250D1*
X5375Y3125D1*
Y2250D1*
X5875Y1750D1*
X6750D1*
X7500Y1000D1*
X13000Y17500D2*
X11750Y16250D1*
Y14250D1*
X11375Y13875D1*
X9500Y5500D2*
X8710Y4710D1*
Y1210D1*
X8500Y1000D1*
X6500D2*
Y1074D1*
X6551D1*
X6500Y1000D2*
X6000Y1500D1*
X5750D1*
X5125Y2125D1*
Y3625D1*
X7125Y5625D1*
X12500Y1000D2*
Y4125D1*
X11375Y5250D1*
Y13125D1*
X6000Y18500D1*
D34*
X9750Y12000D3*
X11750Y5500D3*
X7750Y9500D3*
X7375Y16375D3*
X9000Y7000D3*
X11375Y13875D3*
X9500Y5500D3*
X7125Y5625D3*
X14500Y7000D3*
X8000Y4250D3*
X8750Y12250D3*
X6000Y8000D3*
X310Y21601D2*
D16*
X3152D1*
X4848D2*
X5522D1*
X6478D2*
X12522D1*
X13478D2*
X15152D1*
X310Y21503D2*
X3089D1*
X4911D2*
X5511D1*
X6489D2*
X12511D1*
X13489D2*
X15089D1*
X310Y21404D2*
X3041D1*
X4959D2*
X5520D1*
X6480D2*
X12520D1*
X13480D2*
X15041D1*
X310Y21305D2*
X3005D1*
X4995D2*
X5552D1*
X6448D2*
X12552D1*
X13448D2*
X15005D1*
X310Y21207D2*
X2980D1*
X5020D2*
X5611D1*
X6389D2*
X12611D1*
X13389D2*
X14980D1*
X310Y21108D2*
X2964D1*
X5036D2*
X5714D1*
X6286D2*
X12714D1*
X13286D2*
X14964D1*
X310Y21009D2*
X2960D1*
X5040D2*
X14960D1*
X310Y20910D2*
X2963D1*
X5037D2*
X5742D1*
X6258D2*
X12742D1*
X13258D2*
X14963D1*
X310Y20812D2*
X2977D1*
X5023D2*
X5627D1*
X6373D2*
X12627D1*
X13373D2*
X14977D1*
X310Y20713D2*
X3000D1*
X5000D2*
X5561D1*
X6439D2*
X12561D1*
X13439D2*
X15000D1*
X310Y20614D2*
X3033D1*
X4967D2*
X5525D1*
X6475D2*
X12525D1*
X13475D2*
X15033D1*
X310Y20516D2*
X3080D1*
X4920D2*
X5511D1*
X6489D2*
X12511D1*
X13489D2*
X15080D1*
X310Y20417D2*
X3139D1*
X4861D2*
X5517D1*
X6483D2*
X12517D1*
X13483D2*
X15139D1*
X310Y20318D2*
X1616D1*
X1986D2*
X3216D1*
X4784D2*
X5547D1*
X6453D2*
X12547D1*
X13453D2*
X15216D1*
X310Y20220D2*
X1405D1*
X2198D2*
X3316D1*
X4684D2*
X5602D1*
X6398D2*
X12602D1*
X13398D2*
X15316D1*
X310Y20121D2*
X1292D1*
X2311D2*
X3450D1*
X4550D2*
X5697D1*
X6303D2*
X12697D1*
X13303D2*
X15450D1*
X16550D2*
X16690D1*
X310Y20022D2*
X1217D1*
X2386D2*
X3663D1*
X4337D2*
X5953D1*
X6048D2*
X12953D1*
X13048D2*
X15663D1*
X16337D2*
X16690D1*
X310Y19924D2*
X1166D1*
X2436D2*
X5766D1*
X6234D2*
X12766D1*
X13234D2*
X16690D1*
X310Y19825D2*
X1135D1*
X2469D2*
X5638D1*
X6362D2*
X12638D1*
X13362D2*
X16690D1*
X310Y19726D2*
X1117D1*
X2484D2*
X5567D1*
X6433D2*
X12567D1*
X13433D2*
X16690D1*
X310Y19628D2*
X1116D1*
X2486D2*
X5528D1*
X6472D2*
X12528D1*
X13472D2*
X16690D1*
X310Y19529D2*
X1130D1*
X2473D2*
X5511D1*
X6489D2*
X12511D1*
X13489D2*
X16690D1*
X310Y19430D2*
X1158D1*
X2445D2*
X5516D1*
X6484D2*
X12516D1*
X13484D2*
X16690D1*
X310Y19331D2*
X1203D1*
X2398D2*
X5541D1*
X6459D2*
X12541D1*
X13459D2*
X16690D1*
X310Y19233D2*
X1272D1*
X2331D2*
X5592D1*
X6408D2*
X12592D1*
X13408D2*
X16690D1*
X310Y19134D2*
X1374D1*
X2230D2*
X5681D1*
X6319D2*
X12681D1*
X13319D2*
X16690D1*
X310Y19035D2*
X1545D1*
X2056D2*
X5872D1*
X6128D2*
X12872D1*
X13128D2*
X16690D1*
X310Y18937D2*
X5792D1*
X6208D2*
X12792D1*
X13208D2*
X16690D1*
X310Y18838D2*
X5650D1*
X6350D2*
X12650D1*
X13350D2*
X16690D1*
X310Y18739D2*
X5575D1*
X6425D2*
X12575D1*
X13425D2*
X16690D1*
X310Y18641D2*
X5531D1*
X6469D2*
X12531D1*
X13469D2*
X16690D1*
X310Y18542D2*
X5513D1*
X6487D2*
X12513D1*
X13487D2*
X16690D1*
X310Y18443D2*
X5514D1*
X6486D2*
X12514D1*
X13486D2*
X16690D1*
X310Y18345D2*
X1599D1*
X2005D2*
X5536D1*
X6511D2*
X12536D1*
X13464D2*
X16690D1*
X310Y18246D2*
X1397D1*
X2206D2*
X5585D1*
X6609D2*
X12585D1*
X13415D2*
X16690D1*
X310Y18147D2*
X1288D1*
X2315D2*
X5666D1*
X6708D2*
X12666D1*
X13334D2*
X16690D1*
X310Y18049D2*
X1214D1*
X2389D2*
X5830D1*
X6806D2*
X12830D1*
X13170D2*
X16690D1*
X310Y17950D2*
X1164D1*
X2437D2*
X5825D1*
X6905D2*
X12825D1*
X13175D2*
X16690D1*
X310Y17851D2*
X1133D1*
X2469D2*
X5664D1*
X7003D2*
X12664D1*
X13336D2*
X16690D1*
X310Y17752D2*
X1117D1*
X2484D2*
X5583D1*
X7103D2*
X12583D1*
X13417D2*
X16690D1*
X310Y17654D2*
X1116D1*
X2486D2*
X5536D1*
X7201D2*
X12536D1*
X13464D2*
X16690D1*
X310Y17555D2*
X1130D1*
X2472D2*
X5514D1*
X7300D2*
X12514D1*
X13486D2*
X15075D1*
X15675D2*
X16690D1*
X310Y17456D2*
X1160D1*
X2444D2*
X5513D1*
X7398D2*
X12513D1*
X13487D2*
X14966D1*
X15784D2*
X16690D1*
X310Y17358D2*
X1206D1*
X2397D2*
X5533D1*
X7497D2*
X12503D1*
X13467D2*
X14902D1*
X15848D2*
X16690D1*
X310Y17259D2*
X1277D1*
X2326D2*
X5575D1*
X7595D2*
X12405D1*
X13425D2*
X14864D1*
X15886D2*
X16690D1*
X310Y17160D2*
X1380D1*
X2222D2*
X5652D1*
X7695D2*
X12305D1*
X13348D2*
X14847D1*
X15903D2*
X16690D1*
X310Y17062D2*
X1560D1*
X2042D2*
X5797D1*
X7794D2*
X12206D1*
X13203D2*
X14850D1*
X15900D2*
X16690D1*
X310Y16963D2*
X5867D1*
X7892D2*
X12108D1*
X13133D2*
X14872D1*
X15878D2*
X16690D1*
X310Y16864D2*
X5678D1*
X7990D2*
X12010D1*
X13322D2*
X14917D1*
X15833D2*
X16690D1*
X310Y16766D2*
X5591D1*
X8089D2*
X11911D1*
X13409D2*
X14991D1*
X15759D2*
X16690D1*
X310Y16667D2*
X5541D1*
X8187D2*
X11813D1*
X13459D2*
X15122D1*
X15628D2*
X16690D1*
X310Y16568D2*
X5516D1*
X8287D2*
X11713D1*
X12423D2*
X12516D1*
X13484D2*
X15095D1*
X15655D2*
X16690D1*
X310Y16470D2*
X5511D1*
X8386D2*
X11614D1*
X12325D2*
X12511D1*
X13489D2*
X14978D1*
X15772D2*
X16690D1*
X310Y16371D2*
X1581D1*
X2022D2*
X5528D1*
X8484D2*
X11528D1*
X12226D2*
X12528D1*
X13472D2*
X14908D1*
X15842D2*
X16690D1*
X310Y16272D2*
X1389D1*
X2212D2*
X5569D1*
X8583D2*
X11497D1*
X12126D2*
X12569D1*
X13431D2*
X14867D1*
X15883D2*
X16690D1*
X310Y16173D2*
X1283D1*
X2320D2*
X5639D1*
X8681D2*
X11495D1*
X12028D2*
X12639D1*
X13361D2*
X14849D1*
X15901D2*
X16690D1*
X310Y16075D2*
X1211D1*
X2392D2*
X5769D1*
X8780D2*
X11495D1*
X12005D2*
X12769D1*
X13231D2*
X14849D1*
X15901D2*
X16690D1*
X310Y15976D2*
X1163D1*
X2440D2*
X5936D1*
X6064D2*
X6169D1*
X8880D2*
X11495D1*
X12005D2*
X12936D1*
X13064D2*
X14869D1*
X15881D2*
X16690D1*
X310Y15877D2*
X1131D1*
X2470D2*
X5695D1*
X8978D2*
X11495D1*
X12005D2*
X12695D1*
X13305D2*
X14910D1*
X15840D2*
X16690D1*
X310Y15779D2*
X1117D1*
X2486D2*
X5600D1*
X9076D2*
X11495D1*
X12005D2*
X12600D1*
X13400D2*
X14978D1*
X15772D2*
X16690D1*
X310Y15680D2*
X1117D1*
X2486D2*
X5545D1*
X9175D2*
X11495D1*
X12005D2*
X12545D1*
X13455D2*
X15099D1*
X15651D2*
X16690D1*
X310Y15581D2*
X1131D1*
X2472D2*
X5517D1*
X9273D2*
X11495D1*
X12005D2*
X12517D1*
X13483D2*
X15119D1*
X15631D2*
X16690D1*
X310Y15483D2*
X1161D1*
X2440D2*
X5511D1*
X9372D2*
X11495D1*
X12005D2*
X12511D1*
X13489D2*
X14989D1*
X15761D2*
X16690D1*
X310Y15384D2*
X1210D1*
X2394D2*
X5525D1*
X9470D2*
X11495D1*
X12005D2*
X12525D1*
X13475D2*
X14916D1*
X15834D2*
X16690D1*
X310Y15285D2*
X1280D1*
X2322D2*
X5561D1*
X9570D2*
X11495D1*
X12005D2*
X12561D1*
X13439D2*
X14872D1*
X15878D2*
X16690D1*
X310Y15187D2*
X1386D1*
X2215D2*
X5583D1*
X9669D2*
X11495D1*
X12005D2*
X12628D1*
X13372D2*
X14850D1*
X15900D2*
X16690D1*
X310Y15088D2*
X1575D1*
X2028D2*
X5483D1*
X9767D2*
X11495D1*
X12005D2*
X12745D1*
X13255D2*
X14849D1*
X15901D2*
X16690D1*
X310Y14989D2*
X5385D1*
X9865D2*
X11495D1*
X12005D2*
X14864D1*
X15886D2*
X16690D1*
X310Y14891D2*
X5291D1*
X9964D2*
X11495D1*
X12005D2*
X12713D1*
X13287D2*
X14903D1*
X15847D2*
X16690D1*
X310Y14792D2*
X5250D1*
X10062D2*
X11495D1*
X12005D2*
X12610D1*
X13390D2*
X14967D1*
X15783D2*
X16690D1*
X310Y14693D2*
X5245D1*
X6448D2*
X6702D1*
X10162D2*
X11495D1*
X12005D2*
X12552D1*
X13448D2*
X15078D1*
X15672D2*
X16690D1*
X310Y14594D2*
X5245D1*
X6480D2*
X6800D1*
X10261D2*
X11495D1*
X12005D2*
X12520D1*
X13480D2*
X14847D1*
X15903D2*
X16690D1*
X310Y14496D2*
X5245D1*
X6489D2*
X6899D1*
X10359D2*
X11495D1*
X12005D2*
X12511D1*
X13489D2*
X14847D1*
X15903D2*
X16690D1*
X310Y14397D2*
X1566D1*
X2037D2*
X5245D1*
X6478D2*
X6999D1*
X10458D2*
X11495D1*
X12005D2*
X12522D1*
X13478D2*
X14847D1*
X15903D2*
X16690D1*
X310Y14298D2*
X1383D1*
X2220D2*
X5245D1*
X6556D2*
X7097D1*
X10556D2*
X11444D1*
X12005D2*
X12555D1*
X13445D2*
X14847D1*
X15903D2*
X16690D1*
X310Y14200D2*
X1278D1*
X2325D2*
X5245D1*
X6655D2*
X7195D1*
X10655D2*
X11160D1*
X11998D2*
X12617D1*
X13383D2*
X14847D1*
X15903D2*
X16690D1*
X310Y14101D2*
X1208D1*
X2395D2*
X5245D1*
X6755D2*
X7294D1*
X10755D2*
X11055D1*
X11953D2*
X12725D1*
X13275D2*
X14847D1*
X310Y14002D2*
X1160D1*
X2442D2*
X5245D1*
X6853D2*
X7392D1*
X10853D2*
X11003D1*
X11858D2*
X14847D1*
X310Y13904D2*
X1131D1*
X2472D2*
X5245D1*
X6951D2*
X7491D1*
X11767D2*
X12731D1*
X13269D2*
X14847D1*
X310Y13805D2*
X1117D1*
X2486D2*
X5245D1*
X7050D2*
X7591D1*
X11762D2*
X12620D1*
X13380D2*
X14847D1*
X310Y13706D2*
X1117D1*
X2486D2*
X5245D1*
X7148D2*
X7689D1*
X11730D2*
X12558D1*
X13442D2*
X14847D1*
X310Y13608D2*
X1133D1*
X2470D2*
X5245D1*
X6476D2*
X6539D1*
X7247D2*
X7788D1*
X11661D2*
X12524D1*
X13476D2*
X14847D1*
X310Y13509D2*
X1164D1*
X2439D2*
X5245D1*
X6489D2*
X6636D1*
X7347D2*
X7886D1*
X11500D2*
X12511D1*
X13489D2*
X15469D1*
X310Y13410D2*
X1213D1*
X2390D2*
X5245D1*
X6481D2*
X6735D1*
X7445D2*
X7985D1*
X11445D2*
X12519D1*
X13481D2*
X15469D1*
X310Y13312D2*
X1285D1*
X2317D2*
X5245D1*
X6450D2*
X6833D1*
X7544D2*
X8083D1*
X11544D2*
X12550D1*
X13450D2*
X15469D1*
X310Y13213D2*
X1394D1*
X2208D2*
X5245D1*
X6394D2*
X6933D1*
X7642D2*
X8183D1*
X11612D2*
X12606D1*
X13394D2*
X15469D1*
X310Y13114D2*
X1591D1*
X2011D2*
X5245D1*
X6294D2*
X7031D1*
X7740D2*
X8281D1*
X11630D2*
X12706D1*
X13294D2*
X15469D1*
X310Y13015D2*
X5245D1*
X5839D2*
X7130D1*
X7839D2*
X8380D1*
X11630D2*
X15469D1*
X310Y12917D2*
X5261D1*
X6247D2*
X7228D1*
X7937D2*
X8478D1*
X11630D2*
X12753D1*
X13247D2*
X15469D1*
X310Y12818D2*
X5327D1*
X6369D2*
X7327D1*
X7994D2*
X8577D1*
X11630D2*
X12631D1*
X13369D2*
X15469D1*
X310Y12719D2*
X5425D1*
X6436D2*
X7425D1*
X8005D2*
X8675D1*
X11630D2*
X12564D1*
X13436D2*
X15469D1*
X310Y12621D2*
X5525D1*
X6473D2*
X7495D1*
X8005D2*
X8775D1*
X11630D2*
X12527D1*
X13473D2*
X15469D1*
X310Y12522D2*
X5511D1*
X6489D2*
X7495D1*
X8005D2*
X8874D1*
X11630D2*
X12511D1*
X13489D2*
X15469D1*
X310Y12423D2*
X1552D1*
X2051D2*
X5517D1*
X6483D2*
X7495D1*
X8005D2*
X8972D1*
X11630D2*
X12517D1*
X13483D2*
X15469D1*
X310Y12325D2*
X1375D1*
X2226D2*
X5544D1*
X6456D2*
X7495D1*
X8005D2*
X9070D1*
X11630D2*
X12544D1*
X13456D2*
X15469D1*
X310Y12226D2*
X1274D1*
X2330D2*
X5597D1*
X6403D2*
X7495D1*
X8005D2*
X9169D1*
X11630D2*
X12597D1*
X13403D2*
X15469D1*
X310Y12127D2*
X1205D1*
X2398D2*
X5689D1*
X6311D2*
X7495D1*
X8005D2*
X9267D1*
X11630D2*
X12689D1*
X13311D2*
X15469D1*
X310Y12029D2*
X1158D1*
X2444D2*
X5905D1*
X6095D2*
X7495D1*
X8005D2*
X9358D1*
X11630D2*
X12905D1*
X13095D2*
X15469D1*
X310Y11930D2*
X1130D1*
X2473D2*
X5778D1*
X6222D2*
X7495D1*
X8005D2*
X9363D1*
X11630D2*
X12778D1*
X13222D2*
X15469D1*
X310Y11831D2*
X1116D1*
X2486D2*
X5644D1*
X6356D2*
X7495D1*
X8005D2*
X9395D1*
X11630D2*
X12644D1*
X13356D2*
X15469D1*
X310Y11733D2*
X1117D1*
X2484D2*
X5570D1*
X6430D2*
X7495D1*
X8005D2*
X9464D1*
X11630D2*
X12570D1*
X13430D2*
X15469D1*
X310Y11634D2*
X1135D1*
X2469D2*
X5530D1*
X6470D2*
X7495D1*
X8005D2*
X9625D1*
X11630D2*
X12530D1*
X13470D2*
X15469D1*
X310Y11535D2*
X1166D1*
X2437D2*
X5513D1*
X6487D2*
X7495D1*
X8005D2*
X9870D1*
X11630D2*
X12513D1*
X13487D2*
X15469D1*
X310Y11436D2*
X1216D1*
X2386D2*
X5516D1*
X6484D2*
X7495D1*
X8005D2*
X9870D1*
X11630D2*
X12516D1*
X13484D2*
X15469D1*
X310Y11338D2*
X1289D1*
X2312D2*
X5539D1*
X6461D2*
X7495D1*
X8005D2*
X9870D1*
X11630D2*
X12539D1*
X13461D2*
X15469D1*
X310Y11239D2*
X1402D1*
X2201D2*
X5588D1*
X6412D2*
X7495D1*
X8005D2*
X9870D1*
X11630D2*
X12588D1*
X13412D2*
X15469D1*
X310Y11140D2*
X1610D1*
X1994D2*
X5674D1*
X6326D2*
X7495D1*
X8005D2*
X9870D1*
X11630D2*
X12674D1*
X13326D2*
X15469D1*
X310Y11042D2*
X5850D1*
X6150D2*
X7495D1*
X8005D2*
X9870D1*
X11630D2*
X12850D1*
X13150D2*
X15469D1*
X310Y10943D2*
X5808D1*
X6192D2*
X7495D1*
X8005D2*
X9870D1*
X11630D2*
X12808D1*
X13192D2*
X15469D1*
X310Y10844D2*
X5656D1*
X6344D2*
X7495D1*
X8005D2*
X9870D1*
X11630D2*
X12656D1*
X13344D2*
X15469D1*
X310Y10746D2*
X5578D1*
X6422D2*
X7495D1*
X8005D2*
X9870D1*
X11630D2*
X12578D1*
X13422D2*
X15469D1*
X310Y10647D2*
X5535D1*
X6465D2*
X7495D1*
X8005D2*
X9870D1*
X11630D2*
X12535D1*
X13465D2*
X15469D1*
X310Y10548D2*
X5513D1*
X6487D2*
X7495D1*
X8005D2*
X9870D1*
X11630D2*
X12513D1*
X13487D2*
X15469D1*
X310Y10450D2*
X1538D1*
X2064D2*
X5514D1*
X6486D2*
X7495D1*
X8005D2*
X9870D1*
X11630D2*
X12514D1*
X13486D2*
X15469D1*
X310Y10351D2*
X1369D1*
X2233D2*
X5535D1*
X6465D2*
X7495D1*
X8005D2*
X9870D1*
X11630D2*
X12535D1*
X13465D2*
X15469D1*
X310Y10252D2*
X1269D1*
X2333D2*
X5580D1*
X6420D2*
X7495D1*
X8005D2*
X9870D1*
X11630D2*
X12580D1*
X13420D2*
X15469D1*
X310Y10154D2*
X1202D1*
X2401D2*
X5660D1*
X6340D2*
X7495D1*
X8005D2*
X9870D1*
X11630D2*
X12660D1*
X13340D2*
X15469D1*
X310Y10055D2*
X1156D1*
X2447D2*
X5813D1*
X6187D2*
X7495D1*
X8005D2*
X9870D1*
X11630D2*
X12813D1*
X13187D2*
X15469D1*
X310Y9956D2*
X1128D1*
X2473D2*
X7495D1*
X8005D2*
X9870D1*
X11630D2*
X15469D1*
X310Y9857D2*
X1116D1*
X2486D2*
X7495D1*
X8005D2*
X9870D1*
X11630D2*
X15469D1*
X310Y9759D2*
X1119D1*
X2484D2*
X7456D1*
X8044D2*
X9870D1*
X11630D2*
X15469D1*
X310Y9660D2*
X1135D1*
X2467D2*
X7391D1*
X8109D2*
X9870D1*
X11630D2*
X15469D1*
X310Y9561D2*
X1167D1*
X2434D2*
X7361D1*
X8139D2*
X9870D1*
X11630D2*
X15469D1*
X310Y9463D2*
X1219D1*
X2383D2*
X7358D1*
X8142D2*
X9870D1*
X11630D2*
X15469D1*
X310Y9364D2*
X1295D1*
X2308D2*
X7381D1*
X8119D2*
X9870D1*
X11630D2*
X15469D1*
X310Y9265D2*
X1410D1*
X2194D2*
X7436D1*
X8064D2*
X9870D1*
X11630D2*
X15469D1*
X310Y9167D2*
X1628D1*
X1973D2*
X7550D1*
X7950D2*
X9870D1*
X11630D2*
X15469D1*
X310Y9068D2*
X9870D1*
X11630D2*
X15469D1*
X310Y8969D2*
X9870D1*
X11630D2*
X15469D1*
X310Y8871D2*
X9870D1*
X11630D2*
X15469D1*
X310Y8772D2*
X9870D1*
X11630D2*
X15469D1*
X310Y8673D2*
X9870D1*
X11630D2*
X15469D1*
X310Y8575D2*
X9870D1*
X11630D2*
X15469D1*
X310Y8476D2*
X1525D1*
X2076D2*
X9870D1*
X11630D2*
X15469D1*
X310Y8377D2*
X1363D1*
X2239D2*
X9870D1*
X11630D2*
X15469D1*
X310Y8278D2*
X1264D1*
X2337D2*
X9870D1*
X11630D2*
X15469D1*
X310Y8180D2*
X1199D1*
X2403D2*
X9870D1*
X11630D2*
X15469D1*
X310Y8081D2*
X1155D1*
X2448D2*
X9870D1*
X11630D2*
X15469D1*
X310Y7982D2*
X1127D1*
X2475D2*
X9870D1*
X11630D2*
X15469D1*
X310Y7884D2*
X1116D1*
X2486D2*
X9870D1*
X11630D2*
X15469D1*
X310Y7785D2*
X1119D1*
X2484D2*
X9870D1*
X11630D2*
X15469D1*
X310Y7686D2*
X1136D1*
X2465D2*
X9870D1*
X11630D2*
X15469D1*
X310Y7588D2*
X1170D1*
X2433D2*
X9870D1*
X11630D2*
X15469D1*
X310Y7489D2*
X1222D1*
X2380D2*
X9870D1*
X11630D2*
X15469D1*
X310Y7390D2*
X1300D1*
X2303D2*
X9870D1*
X11630D2*
X15469D1*
X310Y7292D2*
X1417D1*
X2186D2*
X8741D1*
X9259D2*
X9870D1*
X11630D2*
X15469D1*
X310Y7193D2*
X1652D1*
X1951D2*
X8658D1*
X9342D2*
X9870D1*
X11630D2*
X15469D1*
X310Y7094D2*
X8617D1*
X9383D2*
X9870D1*
X11630D2*
X15469D1*
X310Y6996D2*
X8606D1*
X9394D2*
X9870D1*
X11630D2*
X15469D1*
X310Y6897D2*
X8542D1*
X9380D2*
X9870D1*
X11630D2*
X15469D1*
X310Y6798D2*
X8444D1*
X9336D2*
X9870D1*
X11630D2*
X15469D1*
X310Y6699D2*
X8344D1*
X9248D2*
X9870D1*
X11630D2*
X15469D1*
X310Y6601D2*
X8245D1*
X8956D2*
X9870D1*
X11630D2*
X15469D1*
X310Y6502D2*
X1513D1*
X2089D2*
X8147D1*
X8858D2*
X9870D1*
X11630D2*
X15469D1*
X310Y6403D2*
X1356D1*
X2247D2*
X8049D1*
X8758D2*
X9870D1*
X11630D2*
X15469D1*
X310Y6305D2*
X1261D1*
X2342D2*
X7950D1*
X8659D2*
X9870D1*
X11630D2*
X15469D1*
X310Y6206D2*
X1195D1*
X2406D2*
X7852D1*
X8561D2*
X9870D1*
X11630D2*
X15469D1*
X310Y6107D2*
X1153D1*
X2450D2*
X7752D1*
X8462D2*
X9870D1*
X11630D2*
X15469D1*
X310Y6009D2*
X1127D1*
X2476D2*
X7653D1*
X8364D2*
X9870D1*
X11630D2*
X15469D1*
X310Y5910D2*
X1116D1*
X2487D2*
X6858D1*
X7392D2*
X7555D1*
X8265D2*
X9870D1*
X11630D2*
X13113D1*
X13548D2*
X15469D1*
X310Y5811D2*
X1119D1*
X2483D2*
X6780D1*
X8165D2*
X9266D1*
X9734D2*
X9870D1*
X11984D2*
X12977D1*
X13686D2*
X15469D1*
X310Y5713D2*
X1138D1*
X2464D2*
X6741D1*
X8067D2*
X9170D1*
X12130D2*
X12903D1*
X13759D2*
X15469D1*
X310Y5614D2*
X1172D1*
X2430D2*
X6731D1*
X7969D2*
X9124D1*
X12240D2*
X12861D1*
X13800D2*
X15469D1*
X310Y5515D2*
X1225D1*
X2376D2*
X6661D1*
X7870D2*
X9106D1*
X12339D2*
X12842D1*
X13819D2*
X15469D1*
X310Y5417D2*
X1305D1*
X2298D2*
X6561D1*
X7772D2*
X9061D1*
X12439D2*
X12845D1*
X13815D2*
X15469D1*
X310Y5318D2*
X1425D1*
X2178D2*
X6463D1*
X7755D2*
X8963D1*
X12537D2*
X12869D1*
X13792D2*
X15469D1*
X310Y5219D2*
X1680D1*
X1923D2*
X6364D1*
X7751D2*
X8864D1*
X12636D2*
X12917D1*
X13744D2*
X15469D1*
X310Y5120D2*
X6266D1*
X7717D2*
X8766D1*
X12734D2*
X13002D1*
X13659D2*
X15469D1*
X310Y5022D2*
X6167D1*
X7626D2*
X8667D1*
X12833D2*
X13175D1*
X13486D2*
X15469D1*
X310Y4923D2*
X6069D1*
X7528D2*
X8569D1*
X12931D2*
X15469D1*
X310Y4824D2*
X5969D1*
X7430D2*
X8485D1*
X13031D2*
X15469D1*
X310Y4726D2*
X5870D1*
X7331D2*
X8456D1*
X13130D2*
X15469D1*
X310Y4627D2*
X5772D1*
X7233D2*
X8456D1*
X13228D2*
X15469D1*
X310Y4528D2*
X1502D1*
X2100D2*
X5674D1*
X7133D2*
X8456D1*
X13326D2*
X15469D1*
X310Y4430D2*
X1350D1*
X2251D2*
X5575D1*
X7034D2*
X8456D1*
X13425D2*
X15469D1*
X310Y4331D2*
X1256D1*
X2345D2*
X5477D1*
X6936D2*
X8456D1*
X13523D2*
X15469D1*
X310Y4232D2*
X1192D1*
X2409D2*
X5377D1*
X6837D2*
X8456D1*
X13623D2*
X15469D1*
X310Y4134D2*
X1150D1*
X2451D2*
X5278D1*
X6739D2*
X8456D1*
X13722D2*
X15469D1*
X310Y4035D2*
X1125D1*
X2476D2*
X5180D1*
X6640D2*
X8456D1*
X13820D2*
X15469D1*
X310Y3936D2*
X1116D1*
X2487D2*
X5081D1*
X6540D2*
X8456D1*
X13919D2*
X15469D1*
X310Y3838D2*
X1120D1*
X2483D2*
X4983D1*
X6442D2*
X8456D1*
X14017D2*
X15469D1*
X310Y3739D2*
X1139D1*
X2464D2*
X4899D1*
X6344D2*
X8456D1*
X14115D2*
X15469D1*
X310Y3640D2*
X1175D1*
X2428D2*
X4872D1*
X6245D2*
X8456D1*
X14215D2*
X15469D1*
X310Y3541D2*
X1230D1*
X2373D2*
X4870D1*
X6147D2*
X8456D1*
X14314D2*
X15469D1*
X310Y3443D2*
X1310D1*
X2292D2*
X4870D1*
X6048D2*
X8456D1*
X14412D2*
X15469D1*
X310Y3344D2*
X1433D1*
X2170D2*
X4870D1*
X5948D2*
X8456D1*
X14484D2*
X15469D1*
X310Y3245D2*
X1717D1*
X1886D2*
X4870D1*
X6619D2*
X6930D1*
X7173D2*
X7930D1*
X8173D2*
X8456D1*
X14505D2*
X15469D1*
X310Y3147D2*
X4870D1*
X6619D2*
X6708D1*
X7394D2*
X7708D1*
X8394D2*
X8456D1*
X14505D2*
X15469D1*
X310Y3048D2*
X4870D1*
X7497D2*
X7606D1*
X14505D2*
X15469D1*
X310Y2949D2*
X4870D1*
X14505D2*
X15469D1*
X310Y2851D2*
X4870D1*
X14505D2*
X15469D1*
X310Y2752D2*
X4870D1*
X14505D2*
X15469D1*
X310Y2653D2*
X4870D1*
X14505D2*
X15469D1*
X310Y2555D2*
X1116D1*
X2487D2*
X4870D1*
X14505D2*
X15469D1*
X310Y2456D2*
X1116D1*
X2487D2*
X4870D1*
X14505D2*
X15469D1*
X310Y2357D2*
X1116D1*
X2487D2*
X4870D1*
X14505D2*
X16690D1*
X310Y2259D2*
X1116D1*
X2487D2*
X4870D1*
X14505D2*
X16690D1*
X310Y2160D2*
X1116D1*
X2487D2*
X4870D1*
X14505D2*
X16690D1*
X310Y2061D2*
X1116D1*
X2487D2*
X4880D1*
X14505D2*
X16690D1*
X310Y1962D2*
X1116D1*
X2487D2*
X3620D1*
X4380D2*
X4933D1*
X14505D2*
X15620D1*
X16380D2*
X16690D1*
X310Y1864D2*
X1116D1*
X2487D2*
X3427D1*
X4573D2*
X5031D1*
X14505D2*
X15427D1*
X16573D2*
X16690D1*
X310Y1765D2*
X1116D1*
X2487D2*
X3299D1*
X4701D2*
X5130D1*
X14505D2*
X15299D1*
X310Y1666D2*
X1116D1*
X2487D2*
X3203D1*
X4797D2*
X5228D1*
X14489D2*
X15203D1*
X310Y1568D2*
X1116D1*
X2487D2*
X3130D1*
X4870D2*
X5327D1*
X14423D2*
X15130D1*
X310Y1469D2*
X1116D1*
X2487D2*
X3072D1*
X4928D2*
X5269D1*
X310Y1370D2*
X1116D1*
X2487D2*
X3028D1*
X4972D2*
X5127D1*
X310Y1272D2*
X2995D1*
X310Y1173D2*
X2974D1*
X310Y1074D2*
X2961D1*
X310Y976D2*
X2960D1*
X310Y877D2*
X2966D1*
X310Y778D2*
X2983D1*
X310Y680D2*
X3010D1*
X4990D2*
X5083D1*
X5917D2*
X6083D1*
X6917D2*
X7083D1*
X7917D2*
X8083D1*
X8917D2*
X9083D1*
X9917D2*
X10083D1*
X10917D2*
X11083D1*
X11917D2*
X12083D1*
X12917D2*
X13083D1*
X13917D2*
X13971D1*
X310Y581D2*
X3049D1*
X4951D2*
X5185D1*
X5815D2*
X6185D1*
X6815D2*
X7185D1*
X7815D2*
X8185D1*
X8815D2*
X9185D1*
X9815D2*
X10185D1*
X10815D2*
X11185D1*
X11815D2*
X12185D1*
X12815D2*
X13185D1*
X13815D2*
X13972D1*
X310Y482D2*
X3099D1*
X4901D2*
X5464D1*
X5535D2*
X6464D1*
X6535D2*
X7464D1*
X7535D2*
X8464D1*
X8535D2*
X9464D1*
X9535D2*
X10464D1*
X10535D2*
X11464D1*
X11535D2*
X12464D1*
X12535D2*
X13464D1*
X13535D2*
X13972D1*
X15028D2*
X15099D1*
X310Y383D2*
X3163D1*
X4837D2*
X15163D1*
X1175Y2625D2*
X2477D1*
Y1273D1*
X1125D1*
Y2625D1*
X1175D1*
X2477Y3907D2*
X2471Y3828D1*
X2456Y3749D1*
X2432Y3673D1*
X2398Y3600D1*
X2357Y3532D1*
X2307Y3469D1*
X2251Y3412D1*
X2188Y3363D1*
X2120Y3321D1*
X2047Y3288D1*
X1971Y3263D1*
X1893Y3247D1*
X1813Y3241D1*
X1733Y3245D1*
X1654Y3257D1*
X1578Y3279D1*
X1504Y3310D1*
X1434Y3349D1*
X1370Y3397D1*
X1311Y3451D1*
X1260Y3512D1*
X1216Y3579D1*
X1180Y3651D1*
X1153Y3726D1*
X1135Y3804D1*
X1126Y3883D1*
X1127Y3963D1*
X1137Y4042D1*
X1156Y4120D1*
X1185Y4195D1*
X1222Y4266D1*
X1267Y4332D1*
X1319Y4392D1*
X1379Y4445D1*
X1444Y4491D1*
X1514Y4530D1*
X1589Y4559D1*
X1666Y4580D1*
X1745Y4591D1*
X1825Y4593D1*
X1905Y4585D1*
X1983Y4569D1*
X2058Y4543D1*
X2130Y4508D1*
X2198Y4465D1*
X2260Y4414D1*
X2315Y4357D1*
X2363Y4293D1*
X2404Y4224D1*
X2436Y4151D1*
X2459Y4074D1*
X2473Y3995D1*
X2477Y3917D1*
Y3907D1*
X2475Y5836D2*
X2461Y5737D1*
X2432Y5641D1*
X2389Y5551D1*
X2333Y5468D1*
X2266Y5395D1*
X2188Y5331D1*
X2102Y5280D1*
X2010Y5243D1*
X1913Y5219D1*
X1813Y5210D1*
X1713Y5215D1*
X1616Y5236D1*
X1522Y5270D1*
X1434Y5318D1*
X1355Y5378D1*
X1285Y5450D1*
X1226Y5531D1*
X1180Y5619D1*
X1147Y5714D1*
X1129Y5812D1*
X1126Y5912D1*
X1137Y6011D1*
X1162Y6108D1*
X1202Y6199D1*
X1255Y6284D1*
X1319Y6360D1*
X1395Y6426D1*
X1479Y6480D1*
X1570Y6521D1*
X1666Y6548D1*
X1765Y6561D1*
X1865Y6559D1*
X1963Y6542D1*
X2058Y6511D1*
X2148Y6466D1*
X2229Y6409D1*
X2302Y6340D1*
X2363Y6261D1*
X2413Y6174D1*
X2448Y6081D1*
X2470Y5984D1*
X2477Y5886D1*
X2475Y5836D1*
Y7804D2*
X2461Y7706D1*
X2432Y7610D1*
X2389Y7520D1*
X2333Y7437D1*
X2266Y7363D1*
X2188Y7300D1*
X2102Y7249D1*
X2010Y7211D1*
X1913Y7187D1*
X1813Y7178D1*
X1713Y7184D1*
X1616Y7204D1*
X1522Y7239D1*
X1434Y7286D1*
X1355Y7347D1*
X1285Y7418D1*
X1226Y7499D1*
X1180Y7588D1*
X1147Y7682D1*
X1129Y7780D1*
X1126Y7880D1*
X1137Y7979D1*
X1162Y8076D1*
X1202Y8168D1*
X1255Y8253D1*
X1319Y8329D1*
X1395Y8395D1*
X1479Y8449D1*
X1570Y8490D1*
X1666Y8517D1*
X1765Y8529D1*
X1865Y8527D1*
X1963Y8511D1*
X2058Y8480D1*
X2148Y8435D1*
X2229Y8378D1*
X2302Y8309D1*
X2363Y8230D1*
X2413Y8143D1*
X2448Y8050D1*
X2470Y7952D1*
X2477Y7854D1*
X2475Y7804D1*
Y9773D2*
X2461Y9674D1*
X2432Y9578D1*
X2389Y9488D1*
X2333Y9405D1*
X2266Y9332D1*
X2188Y9268D1*
X2102Y9217D1*
X2010Y9180D1*
X1913Y9156D1*
X1813Y9147D1*
X1713Y9152D1*
X1616Y9173D1*
X1522Y9207D1*
X1434Y9255D1*
X1355Y9315D1*
X1285Y9387D1*
X1226Y9468D1*
X1180Y9556D1*
X1147Y9651D1*
X1129Y9749D1*
X1126Y9849D1*
X1137Y9948D1*
X1162Y10045D1*
X1202Y10136D1*
X1255Y10221D1*
X1319Y10297D1*
X1395Y10363D1*
X1479Y10417D1*
X1570Y10458D1*
X1666Y10485D1*
X1765Y10498D1*
X1865Y10496D1*
X1963Y10479D1*
X2058Y10448D1*
X2148Y10403D1*
X2229Y10346D1*
X2302Y10277D1*
X2363Y10198D1*
X2413Y10111D1*
X2448Y10018D1*
X2470Y9921D1*
X2477Y9823D1*
X2475Y9773D1*
Y11741D2*
X2461Y11643D1*
X2432Y11547D1*
X2389Y11457D1*
X2333Y11374D1*
X2266Y11300D1*
X2188Y11237D1*
X2102Y11186D1*
X2010Y11148D1*
X1913Y11124D1*
X1813Y11115D1*
X1713Y11121D1*
X1616Y11141D1*
X1522Y11176D1*
X1434Y11223D1*
X1355Y11284D1*
X1285Y11355D1*
X1226Y11436D1*
X1180Y11525D1*
X1147Y11619D1*
X1129Y11717D1*
X1126Y11817D1*
X1137Y11916D1*
X1162Y12013D1*
X1202Y12105D1*
X1255Y12190D1*
X1319Y12266D1*
X1395Y12332D1*
X1479Y12386D1*
X1570Y12427D1*
X1666Y12454D1*
X1765Y12466D1*
X1865Y12464D1*
X1963Y12448D1*
X2058Y12417D1*
X2148Y12372D1*
X2229Y12315D1*
X2302Y12246D1*
X2363Y12167D1*
X2413Y12080D1*
X2448Y11987D1*
X2470Y11889D1*
X2477Y11791D1*
X2475Y11741D1*
Y13710D2*
X2461Y13611D1*
X2432Y13515D1*
X2389Y13425D1*
X2333Y13342D1*
X2266Y13269D1*
X2188Y13205D1*
X2102Y13154D1*
X2010Y13117D1*
X1913Y13093D1*
X1813Y13084D1*
X1713Y13089D1*
X1616Y13110D1*
X1522Y13144D1*
X1434Y13192D1*
X1355Y13252D1*
X1285Y13324D1*
X1226Y13405D1*
X1180Y13493D1*
X1147Y13588D1*
X1129Y13686D1*
X1126Y13786D1*
X1137Y13885D1*
X1162Y13982D1*
X1202Y14073D1*
X1255Y14158D1*
X1319Y14234D1*
X1395Y14300D1*
X1479Y14354D1*
X1570Y14395D1*
X1666Y14422D1*
X1765Y14435D1*
X1865Y14433D1*
X1963Y14416D1*
X2058Y14385D1*
X2148Y14340D1*
X2229Y14283D1*
X2302Y14214D1*
X2363Y14135D1*
X2413Y14048D1*
X2448Y13955D1*
X2470Y13858D1*
X2477Y13760D1*
X2475Y13710D1*
X2477Y15718D2*
X2471Y15639D1*
X2456Y15560D1*
X2432Y15484D1*
X2398Y15411D1*
X2357Y15343D1*
X2307Y15280D1*
X2251Y15224D1*
X2188Y15174D1*
X2120Y15132D1*
X2047Y15099D1*
X1971Y15074D1*
X1893Y15058D1*
X1813Y15052D1*
X1733Y15056D1*
X1654Y15068D1*
X1578Y15090D1*
X1504Y15121D1*
X1434Y15160D1*
X1370Y15208D1*
X1311Y15262D1*
X1260Y15323D1*
X1216Y15390D1*
X1180Y15462D1*
X1153Y15537D1*
X1135Y15615D1*
X1126Y15694D1*
X1127Y15774D1*
X1137Y15854D1*
X1156Y15931D1*
X1185Y16006D1*
X1222Y16077D1*
X1267Y16143D1*
X1319Y16203D1*
X1379Y16256D1*
X1444Y16303D1*
X1514Y16341D1*
X1589Y16370D1*
X1666Y16391D1*
X1745Y16402D1*
X1825Y16404D1*
X1905Y16397D1*
X1983Y16380D1*
X2058Y16354D1*
X2130Y16319D1*
X2198Y16276D1*
X2260Y16225D1*
X2315Y16168D1*
X2363Y16104D1*
X2404Y16035D1*
X2436Y15962D1*
X2459Y15885D1*
X2473Y15806D1*
X2477Y15728D1*
Y15718D1*
X2475Y17647D2*
X2461Y17548D1*
X2432Y17453D1*
X2389Y17362D1*
X2333Y17279D1*
X2266Y17206D1*
X2188Y17142D1*
X2102Y17091D1*
X2010Y17054D1*
X1913Y17030D1*
X1813Y17021D1*
X1713Y17026D1*
X1616Y17047D1*
X1522Y17081D1*
X1434Y17129D1*
X1355Y17189D1*
X1285Y17261D1*
X1226Y17342D1*
X1180Y17430D1*
X1147Y17525D1*
X1129Y17623D1*
X1126Y17723D1*
X1137Y17822D1*
X1162Y17919D1*
X1202Y18010D1*
X1255Y18095D1*
X1319Y18171D1*
X1395Y18237D1*
X1479Y18291D1*
X1570Y18332D1*
X1666Y18359D1*
X1765Y18372D1*
X1865Y18370D1*
X1963Y18353D1*
X2058Y18322D1*
X2148Y18277D1*
X2229Y18220D1*
X2302Y18151D1*
X2363Y18072D1*
X2413Y17985D1*
X2448Y17892D1*
X2470Y17795D1*
X2477Y17697D1*
X2475Y17647D1*
X2477Y19655D2*
X2471Y19576D1*
X2456Y19497D1*
X2432Y19421D1*
X2398Y19348D1*
X2357Y19280D1*
X2307Y19217D1*
X2251Y19161D1*
X2188Y19111D1*
X2120Y19069D1*
X2047Y19036D1*
X1971Y19011D1*
X1893Y18995D1*
X1813Y18989D1*
X1733Y18993D1*
X1654Y19005D1*
X1578Y19027D1*
X1504Y19058D1*
X1434Y19098D1*
X1370Y19145D1*
X1311Y19199D1*
X1260Y19260D1*
X1216Y19327D1*
X1180Y19399D1*
X1153Y19474D1*
X1135Y19552D1*
X1126Y19631D1*
X1127Y19711D1*
X1137Y19791D1*
X1156Y19868D1*
X1185Y19943D1*
X1222Y20014D1*
X1267Y20080D1*
X1319Y20140D1*
X1379Y20193D1*
X1444Y20240D1*
X1514Y20278D1*
X1589Y20307D1*
X1666Y20328D1*
X1745Y20339D1*
X1825Y20341D1*
X1905Y20334D1*
X1983Y20317D1*
X2058Y20291D1*
X2130Y20256D1*
X2198Y20213D1*
X2260Y20162D1*
X2315Y20105D1*
X2363Y20041D1*
X2404Y19972D1*
X2436Y19899D1*
X2459Y19822D1*
X2473Y19743D1*
X2477Y19665D1*
Y19655D1*
X14364Y1519D2*
X15019D1*
Y1316D1*
X15049Y1399D1*
X15092Y1490D1*
X15144Y1575D1*
X15204Y1655D1*
X15271Y1729D1*
X15345Y1796D1*
X15425Y1856D1*
X15511Y1908D1*
X15601Y1951D1*
X15695Y1985D1*
X15791Y2010D1*
X15890Y2025D1*
X15990Y2031D1*
X16090Y2027D1*
X16189Y2014D1*
X16286Y1991D1*
X16381Y1958D1*
X16472Y1917D1*
X16558Y1867D1*
X16640Y1809D1*
X16700Y1757D1*
Y2408D1*
X15979Y2409D1*
X15479D1*
Y13607D1*
X14856Y13606D1*
Y14644D1*
X15183D1*
X15104Y14683D1*
X15024Y14743D1*
X14957Y14817D1*
X14906Y14903D1*
X14872Y14997D1*
X14857Y15096D1*
X14861Y15195D1*
X14884Y15293D1*
X14925Y15384D1*
X14983Y15465D1*
X15056Y15534D1*
X15140Y15587D1*
X15233Y15624D1*
X15237Y15625D1*
X15148Y15659D1*
X15063Y15711D1*
X14989Y15779D1*
X14930Y15859D1*
X14887Y15949D1*
X14862Y16046D1*
X14857Y16146D1*
X14870Y16245D1*
X14903Y16339D1*
X14952Y16426D1*
X15018Y16501D1*
X15096Y16562D1*
X15185Y16608D1*
X15237Y16625D1*
X15166Y16650D1*
X15104Y16683D1*
X15047Y16723D1*
X14996Y16771D1*
X14952Y16825D1*
X14915Y16885D1*
X14887Y16949D1*
X14868Y17016D1*
X14858Y17086D1*
X14857Y17156D1*
X14866Y17225D1*
X14884Y17293D1*
X14911Y17357D1*
X14947Y17417D1*
X14990Y17472D1*
X15040Y17521D1*
X15096Y17562D1*
X15158Y17596D1*
X15223Y17621D1*
X15291Y17637D1*
X15361Y17643D1*
X15431Y17641D1*
X15500Y17628D1*
X15566Y17607D1*
X15629Y17577D1*
X15688Y17539D1*
X15741Y17493D1*
X15787Y17440D1*
X15826Y17382D1*
X15856Y17319D1*
X15878Y17252D1*
X15890Y17184D1*
X15894Y17115D1*
X15887Y17045D1*
X15872Y16977D1*
X15848Y16912D1*
X15815Y16850D1*
X15774Y16793D1*
X15725Y16743D1*
X15671Y16699D1*
X15611Y16663D1*
X15546Y16635D1*
X15513Y16625D1*
X15576Y16603D1*
X15664Y16556D1*
X15741Y16493D1*
X15804Y16416D1*
X15852Y16328D1*
X15882Y16233D1*
X15894Y16134D1*
X15891Y16075D1*
X15872Y15977D1*
X15835Y15885D1*
X15780Y15801D1*
X15710Y15729D1*
X15628Y15672D1*
X15537Y15632D1*
X15511Y15625D1*
X15576Y15603D1*
X15664Y15556D1*
X15741Y15493D1*
X15804Y15416D1*
X15852Y15328D1*
X15882Y15233D1*
X15894Y15134D1*
X15891Y15075D1*
X15872Y14977D1*
X15835Y14885D1*
X15780Y14801D1*
X15710Y14729D1*
X15628Y14672D1*
X15568Y14644D1*
X15894D1*
Y14111D1*
X16700Y14110D1*
Y20242D1*
X16624Y20179D1*
X16541Y20122D1*
X16454Y20074D1*
X16362Y20034D1*
X16267Y20004D1*
X16169Y19983D1*
X16070Y19971D1*
X15970Y19969D1*
X15870Y19977D1*
X15772Y19994D1*
X15676Y20021D1*
X15582Y20057D1*
X15493Y20102D1*
X15408Y20155D1*
X15329Y20216D1*
X15257Y20285D1*
X15191Y20360D1*
X15133Y20442D1*
X15083Y20528D1*
X15042Y20619D1*
X15009Y20714D1*
X14986Y20811D1*
X14973Y20910D1*
X14969Y21010D1*
X14975Y21110D1*
X14990Y21209D1*
X15015Y21305D1*
X15049Y21399D1*
X15092Y21490D1*
X15144Y21575D1*
X15204Y21655D1*
X15244Y21701D1*
X14450Y21700D1*
X13436D1*
X13466Y21610D1*
X13475Y21561D1*
X13479Y21500D1*
X13477Y21450D1*
X13469Y21401D1*
X13456Y21352D1*
X13438Y21306D1*
X13416Y21261D1*
X13388Y21219D1*
X13357Y21180D1*
X13322Y21145D1*
X13283Y21113D1*
X13241Y21086D1*
X13197Y21063D1*
X13150Y21045D1*
X13102Y21032D1*
X13053Y21024D1*
X13003Y21021D1*
X12953Y21023D1*
X12904Y21031D1*
X12855Y21043D1*
X12808Y21061D1*
X12764Y21083D1*
X12722Y21110D1*
X12682Y21141D1*
X12647Y21176D1*
X12615Y21215D1*
X12587Y21256D1*
X12564Y21301D1*
X12546Y21347D1*
X12532Y21395D1*
X12524Y21444D1*
X12521Y21494D1*
X12523Y21544D1*
X12530Y21594D1*
X12542Y21642D1*
X12564Y21699D1*
X12250Y21700D1*
X6436D1*
X6466Y21610D1*
X6475Y21561D1*
X6479Y21500D1*
X6477Y21450D1*
X6469Y21401D1*
X6456Y21352D1*
X6438Y21306D1*
X6416Y21261D1*
X6388Y21219D1*
X6357Y21180D1*
X6322Y21145D1*
X6283Y21113D1*
X6241Y21086D1*
X6197Y21063D1*
X6150Y21045D1*
X6102Y21032D1*
X6053Y21024D1*
X6003Y21021D1*
X5953Y21023D1*
X5904Y21031D1*
X5855Y21043D1*
X5808Y21061D1*
X5764Y21083D1*
X5722Y21110D1*
X5682Y21141D1*
X5647Y21176D1*
X5615Y21215D1*
X5587Y21256D1*
X5564Y21301D1*
X5546Y21347D1*
X5532Y21395D1*
X5524Y21444D1*
X5521Y21494D1*
X5523Y21544D1*
X5530Y21594D1*
X5542Y21642D1*
X5564Y21699D1*
X5250Y21700D1*
X4758D1*
X4815Y21632D1*
X4873Y21550D1*
X4922Y21463D1*
X4962Y21371D1*
X4994Y21276D1*
X5016Y21179D1*
X5028Y21080D1*
X5031Y21000D1*
X5026Y20900D1*
X5012Y20801D1*
X4988Y20704D1*
X4955Y20610D1*
X4912Y20519D1*
X4862Y20433D1*
X4803Y20353D1*
X4736Y20278D1*
X4663Y20210D1*
X4583Y20150D1*
X4498Y20097D1*
X4408Y20053D1*
X4315Y20018D1*
X4218Y19992D1*
X4120Y19976D1*
X4020Y19969D1*
X3920Y19972D1*
X3821Y19984D1*
X3723Y20006D1*
X3629Y20038D1*
X3537Y20078D1*
X3450Y20128D1*
X3368Y20185D1*
X3292Y20250D1*
X3223Y20322D1*
X3161Y20400D1*
X3107Y20484D1*
X3061Y20573D1*
X3024Y20666D1*
X2996Y20762D1*
X2978Y20860D1*
X2969Y20960D1*
X2970Y21060D1*
X2981Y21159D1*
X3001Y21257D1*
X3031Y21353D1*
X3070Y21445D1*
X3117Y21533D1*
X3173Y21616D1*
X3244Y21701D1*
X2450Y21700D1*
X300D1*
Y300D1*
X3242D1*
X3161Y400D1*
X3107Y484D1*
X3061Y573D1*
X3024Y666D1*
X2996Y762D1*
X2978Y860D1*
X2969Y960D1*
X2970Y1060D1*
X2981Y1159D1*
X3001Y1257D1*
X3031Y1353D1*
X3070Y1445D1*
X3117Y1533D1*
X3173Y1616D1*
X3236Y1693D1*
X3307Y1764D1*
X3384Y1827D1*
X3467Y1883D1*
X3555Y1930D1*
X3647Y1969D1*
X3743Y1999D1*
X3841Y2019D1*
X3940Y2030D1*
X4040Y2031D1*
X4140Y2022D1*
X4238Y2004D1*
X4334Y1976D1*
X4427Y1939D1*
X4516Y1893D1*
X4600Y1839D1*
X4678Y1777D1*
X4750Y1708D1*
X4815Y1632D1*
X4873Y1550D1*
X4922Y1463D1*
X4962Y1371D1*
X4994Y1276D1*
X5015Y1184D1*
X5050Y1259D1*
X5108Y1340D1*
X5181Y1409D1*
X5265Y1462D1*
X5358Y1499D1*
X5396Y1508D1*
X4952Y1952D1*
X4921Y1991D1*
X4898Y2035D1*
X4884Y2085D1*
X4881Y2125D1*
Y3625D1*
X4886Y3675D1*
X4901Y3722D1*
X4927Y3767D1*
X4952Y3798D1*
X6743Y5589D1*
Y5669D1*
X6752Y5718D1*
X6768Y5765D1*
X6789Y5811D1*
X6816Y5853D1*
X6848Y5891D1*
X6885Y5925D1*
X6926Y5953D1*
X6970Y5976D1*
X7017Y5993D1*
X7066Y6004D1*
X7115Y6009D1*
X7165Y6007D1*
X7215Y5998D1*
X7262Y5984D1*
X7308Y5963D1*
X7350Y5936D1*
X7389Y5904D1*
X7423Y5868D1*
X7463Y5806D1*
X7858Y6203D1*
X8617Y6962D1*
X8618Y7044D1*
X8627Y7093D1*
X8643Y7140D1*
X8664Y7186D1*
X8691Y7228D1*
X8723Y7266D1*
X8760Y7300D1*
X8801Y7328D1*
X8845Y7351D1*
X8892Y7368D1*
X8941Y7379D1*
X8990Y7384D1*
X9040Y7382D1*
X9090Y7373D1*
X9137Y7359D1*
X9183Y7338D1*
X9225Y7311D1*
X9264Y7279D1*
X9298Y7243D1*
X9327Y7202D1*
X9350Y7158D1*
X9368Y7111D1*
X9379Y7062D1*
X9384Y7000D1*
X9381Y6950D1*
X9371Y6901D1*
X9355Y6854D1*
X9333Y6809D1*
X9305Y6767D1*
X9273Y6730D1*
X9235Y6696D1*
X9194Y6669D1*
X9149Y6646D1*
X9102Y6630D1*
X9053Y6620D1*
X9003Y6616D1*
X8964Y6618D1*
X7900Y5555D1*
X7744Y5399D1*
Y5250D1*
X7739Y5200D1*
X7724Y5153D1*
X7698Y5108D1*
X7673Y5077D1*
X5853Y3258D1*
X6609Y3257D1*
X6610Y3040D1*
X6656Y3092D1*
X6708Y3139D1*
X6766Y3178D1*
X6828Y3210D1*
X6894Y3234D1*
X6962Y3250D1*
X7032Y3256D1*
X7102Y3255D1*
X7171Y3244D1*
X7238Y3225D1*
X7302Y3197D1*
X7363Y3162D1*
X7418Y3119D1*
X7468Y3070D1*
X7511Y3015D1*
X7551Y2946D1*
X7598Y3024D1*
X7663Y3099D1*
X7740Y3162D1*
X7828Y3210D1*
X7923Y3242D1*
X8022Y3256D1*
X8121Y3252D1*
X8219Y3231D1*
X8311Y3193D1*
X8395Y3138D1*
X8467Y3071D1*
X8466Y3660D1*
Y4710D1*
X8471Y4759D1*
X8486Y4807D1*
X8511Y4852D1*
X8537Y4882D1*
X9117Y5462D1*
X9118Y5544D1*
X9127Y5593D1*
X9143Y5640D1*
X9164Y5686D1*
X9191Y5728D1*
X9223Y5766D1*
X9260Y5800D1*
X9301Y5828D1*
X9345Y5851D1*
X9392Y5868D1*
X9441Y5879D1*
X9490Y5884D1*
X9540Y5882D1*
X9590Y5873D1*
X9637Y5859D1*
X9683Y5838D1*
X9725Y5811D1*
X9764Y5779D1*
X9798Y5743D1*
X9827Y5702D1*
X9850Y5658D1*
X9872Y5591D1*
X9881Y5650D1*
Y11639D1*
X9803Y11620D1*
X9753Y11616D1*
X9703Y11619D1*
X9654Y11628D1*
X9607Y11644D1*
X9562Y11665D1*
X9520Y11693D1*
X9482Y11725D1*
X9448Y11762D1*
X9420Y11803D1*
X9397Y11848D1*
X9381Y11895D1*
X9370Y11944D1*
X9366Y11994D1*
X9368Y12036D1*
X8835Y12570D1*
X6648Y14756D1*
X6405D1*
X6433Y14705D1*
X6452Y14658D1*
X6466Y14610D1*
X6475Y14561D1*
X6479Y14500D1*
X6477Y14450D1*
X6464Y14381D1*
X7923Y12923D1*
X7954Y12884D1*
X7977Y12840D1*
X7991Y12790D1*
X7994Y12750D1*
Y9795D1*
X8048Y9743D1*
X8077Y9702D1*
X8100Y9658D1*
X8118Y9611D1*
X8129Y9562D1*
X8134Y9500D1*
X8131Y9450D1*
X8121Y9401D1*
X8105Y9354D1*
X8083Y9309D1*
X8055Y9267D1*
X8023Y9230D1*
X7985Y9196D1*
X7944Y9169D1*
X7899Y9146D1*
X7852Y9130D1*
X7803Y9120D1*
X7753Y9116D1*
X7703Y9119D1*
X7654Y9128D1*
X7607Y9144D1*
X7562Y9165D1*
X7520Y9193D1*
X7482Y9225D1*
X7448Y9262D1*
X7420Y9303D1*
X7397Y9348D1*
X7381Y9395D1*
X7370Y9444D1*
X7366Y9494D1*
X7368Y9544D1*
X7377Y9593D1*
X7393Y9640D1*
X7414Y9686D1*
X7441Y9728D1*
X7473Y9766D1*
X7506Y9796D1*
Y12648D1*
X6415Y13740D1*
X6445Y13677D1*
X6466Y13610D1*
X6477Y13541D1*
X6478Y13470D1*
X6469Y13401D1*
X6449Y13334D1*
X6420Y13270D1*
X6382Y13211D1*
X6336Y13159D1*
X6283Y13113D1*
X6224Y13076D1*
X6160Y13048D1*
X6092Y13030D1*
X6023Y13021D1*
X5953Y13023D1*
X5884Y13035D1*
X5818Y13057D1*
X5759Y13086D1*
X5881Y12964D1*
X5942Y12976D1*
X5991Y12979D1*
X6041Y12977D1*
X6091Y12971D1*
X6139Y12959D1*
X6186Y12942D1*
X6231Y12920D1*
X6274Y12893D1*
X6313Y12863D1*
X6349Y12828D1*
X6382Y12790D1*
X6410Y12749D1*
X6433Y12705D1*
X6452Y12658D1*
X6466Y12610D1*
X6475Y12561D1*
X6479Y12500D1*
X6477Y12450D1*
X6469Y12401D1*
X6456Y12352D1*
X6438Y12306D1*
X6416Y12261D1*
X6388Y12219D1*
X6357Y12180D1*
X6322Y12145D1*
X6283Y12113D1*
X6241Y12086D1*
X6197Y12063D1*
X6150Y12045D1*
X6102Y12032D1*
X6053Y12024D1*
X6003Y12021D1*
X5953Y12023D1*
X5904Y12031D1*
X5855Y12043D1*
X5808Y12061D1*
X5764Y12083D1*
X5722Y12110D1*
X5682Y12141D1*
X5647Y12176D1*
X5615Y12215D1*
X5587Y12256D1*
X5564Y12301D1*
X5546Y12347D1*
X5532Y12395D1*
X5524Y12444D1*
X5521Y12494D1*
X5523Y12544D1*
X5537Y12619D1*
X5327Y12827D1*
X5296Y12866D1*
X5273Y12910D1*
X5259Y12960D1*
X5256Y13000D1*
Y14750D1*
X5261Y14800D1*
X5276Y14847D1*
X5302Y14892D1*
X5327Y14923D1*
X5577Y15173D1*
X5618Y15205D1*
X5615Y15215D1*
X5587Y15256D1*
X5564Y15301D1*
X5546Y15347D1*
X5532Y15395D1*
X5524Y15444D1*
X5521Y15494D1*
X5523Y15544D1*
X5530Y15594D1*
X5542Y15642D1*
X5560Y15689D1*
X5582Y15734D1*
X5608Y15776D1*
X5639Y15815D1*
X5674Y15851D1*
X5712Y15883D1*
X5754Y15911D1*
X5798Y15935D1*
X5844Y15953D1*
X5892Y15967D1*
X5942Y15976D1*
X5991Y15979D1*
X6041Y15977D1*
X6091Y15971D1*
X6139Y15959D1*
X6186Y15942D1*
X6240Y15915D1*
X6120Y16035D1*
X6053Y16024D1*
X6003Y16021D1*
X5953Y16023D1*
X5904Y16031D1*
X5855Y16043D1*
X5808Y16061D1*
X5764Y16083D1*
X5722Y16110D1*
X5682Y16141D1*
X5647Y16176D1*
X5615Y16215D1*
X5587Y16256D1*
X5564Y16301D1*
X5546Y16347D1*
X5532Y16395D1*
X5524Y16444D1*
X5521Y16494D1*
X5523Y16544D1*
X5530Y16594D1*
X5542Y16642D1*
X5560Y16689D1*
X5582Y16734D1*
X5608Y16776D1*
X5639Y16815D1*
X5674Y16851D1*
X5712Y16883D1*
X5754Y16911D1*
X5798Y16935D1*
X5844Y16953D1*
X5892Y16967D1*
X5942Y16976D1*
X5991Y16979D1*
X6041Y16977D1*
X6091Y16971D1*
X6139Y16959D1*
X6186Y16942D1*
X6240Y16915D1*
X6120Y17035D1*
X6053Y17024D1*
X6003Y17021D1*
X5953Y17023D1*
X5904Y17031D1*
X5855Y17043D1*
X5808Y17061D1*
X5764Y17083D1*
X5722Y17110D1*
X5682Y17141D1*
X5647Y17176D1*
X5615Y17215D1*
X5587Y17256D1*
X5564Y17301D1*
X5546Y17347D1*
X5532Y17395D1*
X5524Y17444D1*
X5521Y17494D1*
X5523Y17544D1*
X5530Y17594D1*
X5542Y17642D1*
X5560Y17689D1*
X5582Y17734D1*
X5608Y17776D1*
X5639Y17815D1*
X5674Y17851D1*
X5712Y17883D1*
X5754Y17911D1*
X5798Y17935D1*
X5844Y17953D1*
X5892Y17967D1*
X5942Y17976D1*
X5991Y17979D1*
X6041Y17977D1*
X6091Y17971D1*
X6139Y17959D1*
X6186Y17942D1*
X6241Y17914D1*
X6119Y18036D1*
X6053Y18024D1*
X6003Y18021D1*
X5953Y18023D1*
X5904Y18031D1*
X5855Y18043D1*
X5808Y18061D1*
X5764Y18083D1*
X5722Y18110D1*
X5682Y18141D1*
X5647Y18176D1*
X5615Y18215D1*
X5587Y18256D1*
X5564Y18301D1*
X5546Y18347D1*
X5532Y18395D1*
X5524Y18444D1*
X5521Y18494D1*
X5523Y18544D1*
X5530Y18594D1*
X5542Y18642D1*
X5560Y18689D1*
X5582Y18734D1*
X5608Y18776D1*
X5639Y18815D1*
X5674Y18851D1*
X5712Y18883D1*
X5754Y18911D1*
X5798Y18935D1*
X5844Y18953D1*
X5892Y18967D1*
X5942Y18976D1*
X5991Y18979D1*
X6041Y18977D1*
X6091Y18971D1*
X6139Y18959D1*
X6186Y18942D1*
X6231Y18920D1*
X6274Y18893D1*
X6313Y18863D1*
X6349Y18828D1*
X6382Y18790D1*
X6410Y18749D1*
X6433Y18705D1*
X6452Y18658D1*
X6466Y18610D1*
X6475Y18561D1*
X6479Y18500D1*
X6477Y18450D1*
X6464Y18381D1*
X10991Y13854D1*
X10993Y13919D1*
X11002Y13968D1*
X11018Y14015D1*
X11039Y14061D1*
X11066Y14103D1*
X11098Y14141D1*
X11135Y14175D1*
X11176Y14203D1*
X11220Y14226D1*
X11267Y14243D1*
X11316Y14254D1*
X11365Y14259D1*
X11411Y14257D1*
X11506Y14351D1*
Y16250D1*
X11511Y16300D1*
X11526Y16347D1*
X11552Y16392D1*
X11577Y16423D1*
X12535Y17380D1*
X12524Y17444D1*
X12521Y17494D1*
X12523Y17544D1*
X12530Y17594D1*
X12542Y17642D1*
X12560Y17689D1*
X12582Y17734D1*
X12608Y17776D1*
X12639Y17815D1*
X12674Y17851D1*
X12712Y17883D1*
X12754Y17911D1*
X12798Y17935D1*
X12844Y17953D1*
X12892Y17967D1*
X12942Y17976D1*
X12991Y17979D1*
X13041Y17977D1*
X13091Y17971D1*
X13139Y17959D1*
X13186Y17942D1*
X13231Y17920D1*
X13274Y17893D1*
X13313Y17863D1*
X13349Y17828D1*
X13382Y17790D1*
X13410Y17749D1*
X13433Y17705D1*
X13452Y17658D1*
X13466Y17610D1*
X13475Y17561D1*
X13479Y17500D1*
X13477Y17450D1*
X13469Y17401D1*
X13456Y17352D1*
X13438Y17306D1*
X13416Y17261D1*
X13388Y17219D1*
X13357Y17180D1*
X13322Y17145D1*
X13283Y17113D1*
X13241Y17086D1*
X13197Y17063D1*
X13150Y17045D1*
X13102Y17032D1*
X13053Y17024D1*
X13003Y17021D1*
X12953Y17023D1*
X12881Y17036D1*
X12760Y16915D1*
X12844Y16953D1*
X12892Y16967D1*
X12942Y16976D1*
X12991Y16979D1*
X13041Y16977D1*
X13091Y16971D1*
X13139Y16959D1*
X13186Y16942D1*
X13231Y16920D1*
X13274Y16893D1*
X13313Y16863D1*
X13349Y16828D1*
X13382Y16790D1*
X13410Y16749D1*
X13433Y16705D1*
X13452Y16658D1*
X13466Y16610D1*
X13475Y16561D1*
X13479Y16500D1*
X13477Y16450D1*
X13469Y16401D1*
X13456Y16352D1*
X13438Y16306D1*
X13416Y16261D1*
X13388Y16219D1*
X13357Y16180D1*
X13322Y16145D1*
X13283Y16113D1*
X13241Y16086D1*
X13197Y16063D1*
X13150Y16045D1*
X13102Y16032D1*
X13053Y16024D1*
X13003Y16021D1*
X12953Y16023D1*
X12904Y16031D1*
X12855Y16043D1*
X12808Y16061D1*
X12764Y16083D1*
X12722Y16110D1*
X12682Y16141D1*
X12647Y16176D1*
X12615Y16215D1*
X12587Y16256D1*
X12564Y16301D1*
X12546Y16347D1*
X12532Y16395D1*
X12524Y16444D1*
X12521Y16494D1*
X12523Y16544D1*
X12530Y16594D1*
X12542Y16642D1*
X12560Y16689D1*
X12586Y16740D1*
X11994Y16149D1*
Y14250D1*
X11989Y14200D1*
X11974Y14153D1*
X11948Y14108D1*
X11923Y14077D1*
X11758Y13913D1*
X11756Y13825D1*
X11746Y13776D1*
X11730Y13729D1*
X11708Y13684D1*
X11680Y13642D1*
X11648Y13605D1*
X11610Y13571D1*
X11569Y13544D1*
X11524Y13521D1*
X11477Y13505D1*
X11428Y13495D1*
X11352Y13493D1*
X11548Y13298D1*
X11579Y13259D1*
X11602Y13215D1*
X11616Y13165D1*
X11619Y13125D1*
Y5861D1*
X11691Y5879D1*
X11740Y5884D1*
X11790Y5882D1*
X11840Y5873D1*
X11887Y5859D1*
X11933Y5838D1*
X11975Y5811D1*
X12014Y5779D1*
X12050Y5739D1*
X12120Y5713D1*
X12173Y5673D1*
X14423Y3423D1*
X14454Y3384D1*
X14477Y3340D1*
X14491Y3290D1*
X14494Y3250D1*
Y1750D1*
X14489Y1700D1*
X14474Y1653D1*
X14448Y1608D1*
X14423Y1577D1*
X14364Y1519D1*
X15019Y683D2*
Y481D1*
X13981D1*
Y805D1*
X13934Y716D1*
X13872Y638D1*
X13796Y574D1*
X13709Y525D1*
X13614Y494D1*
X13515Y482D1*
X13415Y488D1*
X13319Y514D1*
X13229Y558D1*
X13149Y618D1*
X13082Y692D1*
X13031Y778D1*
X13000Y865D1*
X12981Y805D1*
X12934Y716D1*
X12872Y638D1*
X12796Y574D1*
X12709Y525D1*
X12614Y494D1*
X12515Y482D1*
X12415Y488D1*
X12319Y514D1*
X12229Y558D1*
X12149Y618D1*
X12082Y692D1*
X12031Y778D1*
X12000Y865D1*
X11981Y805D1*
X11934Y716D1*
X11872Y638D1*
X11796Y574D1*
X11709Y525D1*
X11614Y494D1*
X11515Y482D1*
X11415Y488D1*
X11319Y514D1*
X11229Y558D1*
X11149Y618D1*
X11082Y692D1*
X11031Y778D1*
X11000Y865D1*
X10981Y805D1*
X10934Y716D1*
X10872Y638D1*
X10796Y574D1*
X10709Y525D1*
X10614Y494D1*
X10515Y482D1*
X10415Y488D1*
X10319Y514D1*
X10229Y558D1*
X10149Y618D1*
X10082Y692D1*
X10031Y778D1*
X10000Y865D1*
X9981Y805D1*
X9934Y716D1*
X9872Y638D1*
X9796Y574D1*
X9709Y525D1*
X9614Y494D1*
X9515Y482D1*
X9415Y488D1*
X9319Y514D1*
X9229Y558D1*
X9149Y618D1*
X9082Y692D1*
X9031Y778D1*
X9000Y865D1*
X8981Y805D1*
X8934Y716D1*
X8872Y638D1*
X8796Y574D1*
X8709Y525D1*
X8614Y494D1*
X8515Y482D1*
X8415Y488D1*
X8319Y514D1*
X8229Y558D1*
X8149Y618D1*
X8082Y692D1*
X8031Y778D1*
X8000Y865D1*
X7981Y805D1*
X7934Y716D1*
X7872Y638D1*
X7796Y574D1*
X7709Y525D1*
X7614Y494D1*
X7515Y482D1*
X7415Y488D1*
X7319Y514D1*
X7229Y558D1*
X7149Y618D1*
X7082Y692D1*
X7031Y778D1*
X7000Y865D1*
X6981Y805D1*
X6934Y716D1*
X6872Y638D1*
X6796Y574D1*
X6709Y525D1*
X6614Y494D1*
X6515Y482D1*
X6415Y488D1*
X6319Y514D1*
X6229Y558D1*
X6149Y618D1*
X6082Y692D1*
X6031Y778D1*
X6000Y865D1*
X5981Y805D1*
X5934Y716D1*
X5872Y638D1*
X5796Y574D1*
X5709Y525D1*
X5614Y494D1*
X5515Y482D1*
X5415Y488D1*
X5319Y514D1*
X5229Y558D1*
X5149Y618D1*
X5082Y692D1*
X5031Y778D1*
X5015Y817D1*
X4988Y704D1*
X4955Y610D1*
X4912Y519D1*
X4862Y433D1*
X4803Y353D1*
X4757Y300D1*
X15242D1*
X15161Y400D1*
X15107Y484D1*
X15061Y573D1*
X15018Y686D1*
X13807Y5428D2*
X13800Y5379D1*
X13787Y5331D1*
X13769Y5284D1*
X13746Y5240D1*
X13719Y5198D1*
X13688Y5159D1*
X13653Y5123D1*
X13614Y5092D1*
X13572Y5064D1*
X13528Y5041D1*
X13481Y5023D1*
X13433Y5010D1*
X13383Y5002D1*
X13334Y4999D1*
X13284Y5001D1*
X13234Y5009D1*
X13186Y5021D1*
X13139Y5039D1*
X13094Y5061D1*
X13052Y5088D1*
X13013Y5119D1*
X12977Y5154D1*
X12946Y5193D1*
X12918Y5235D1*
X12895Y5279D1*
X12876Y5325D1*
X12863Y5374D1*
X12855Y5423D1*
X12851Y5473D1*
X12853Y5523D1*
X12861Y5572D1*
X12873Y5620D1*
X12890Y5667D1*
X12912Y5712D1*
X12939Y5755D1*
X12970Y5794D1*
X13005Y5830D1*
X13043Y5862D1*
X13085Y5890D1*
X13129Y5913D1*
X13175Y5932D1*
X13223Y5945D1*
X13272Y5954D1*
X13322Y5958D1*
X13372Y5956D1*
X13422Y5949D1*
X13470Y5937D1*
X13517Y5920D1*
X13562Y5898D1*
X13605Y5872D1*
X13644Y5841D1*
X13680Y5806D1*
X13712Y5768D1*
X13740Y5727D1*
X13764Y5683D1*
X13783Y5637D1*
X13797Y5589D1*
X13806Y5540D1*
X13810Y5478D1*
X13807Y5428D1*
X13477Y10450D2*
X13469Y10401D1*
X13456Y10352D1*
X13438Y10306D1*
X13416Y10261D1*
X13388Y10219D1*
X13357Y10180D1*
X13322Y10145D1*
X13283Y10113D1*
X13241Y10086D1*
X13197Y10063D1*
X13150Y10045D1*
X13102Y10032D1*
X13053Y10024D1*
X13003Y10021D1*
X12953Y10023D1*
X12904Y10031D1*
X12855Y10043D1*
X12808Y10061D1*
X12764Y10083D1*
X12722Y10110D1*
X12682Y10141D1*
X12647Y10176D1*
X12615Y10215D1*
X12587Y10256D1*
X12564Y10301D1*
X12546Y10347D1*
X12532Y10395D1*
X12524Y10444D1*
X12521Y10494D1*
X12523Y10544D1*
X12530Y10594D1*
X12542Y10642D1*
X12560Y10689D1*
X12582Y10734D1*
X12608Y10776D1*
X12639Y10815D1*
X12674Y10851D1*
X12712Y10883D1*
X12754Y10911D1*
X12798Y10935D1*
X12844Y10953D1*
X12892Y10967D1*
X12942Y10976D1*
X12991Y10979D1*
X13041Y10977D1*
X13091Y10971D1*
X13139Y10959D1*
X13186Y10942D1*
X13231Y10920D1*
X13274Y10893D1*
X13313Y10863D1*
X13349Y10828D1*
X13382Y10790D1*
X13410Y10749D1*
X13433Y10705D1*
X13452Y10658D1*
X13466Y10610D1*
X13475Y10561D1*
X13479Y10500D1*
X13477Y10450D1*
X13479Y11490D2*
X13473Y11420D1*
X13456Y11352D1*
X13430Y11288D1*
X13394Y11227D1*
X13350Y11173D1*
X13299Y11125D1*
X13241Y11086D1*
X13178Y11055D1*
X13112Y11034D1*
X13043Y11023D1*
X12973Y11021D1*
X12904Y11031D1*
X12836Y11050D1*
X12772Y11078D1*
X12713Y11116D1*
X12661Y11162D1*
X12615Y11215D1*
X12578Y11274D1*
X12549Y11338D1*
X12530Y11405D1*
X12521Y11474D1*
X12523Y11544D1*
X12534Y11613D1*
X12556Y11680D1*
X12587Y11743D1*
X12626Y11800D1*
X12674Y11851D1*
X12729Y11895D1*
X12789Y11930D1*
X12854Y11956D1*
X12922Y11973D1*
X12991Y11979D1*
X13061Y11975D1*
X13130Y11961D1*
X13196Y11938D1*
X13257Y11904D1*
X13313Y11863D1*
X13363Y11813D1*
X13404Y11757D1*
X13438Y11695D1*
X13461Y11630D1*
X13475Y11561D1*
X13479Y11490D1*
X13477Y12450D2*
X13469Y12401D1*
X13456Y12352D1*
X13438Y12306D1*
X13416Y12261D1*
X13388Y12219D1*
X13357Y12180D1*
X13322Y12145D1*
X13283Y12113D1*
X13241Y12086D1*
X13197Y12063D1*
X13150Y12045D1*
X13102Y12032D1*
X13053Y12024D1*
X13003Y12021D1*
X12953Y12023D1*
X12904Y12031D1*
X12855Y12043D1*
X12808Y12061D1*
X12764Y12083D1*
X12722Y12110D1*
X12682Y12141D1*
X12647Y12176D1*
X12615Y12215D1*
X12587Y12256D1*
X12564Y12301D1*
X12546Y12347D1*
X12532Y12395D1*
X12524Y12444D1*
X12521Y12494D1*
X12523Y12544D1*
X12530Y12594D1*
X12542Y12642D1*
X12560Y12689D1*
X12582Y12734D1*
X12608Y12776D1*
X12639Y12815D1*
X12674Y12851D1*
X12712Y12883D1*
X12754Y12911D1*
X12798Y12935D1*
X12844Y12953D1*
X12892Y12967D1*
X12942Y12976D1*
X12991Y12979D1*
X13041Y12977D1*
X13091Y12971D1*
X13139Y12959D1*
X13186Y12942D1*
X13231Y12920D1*
X13274Y12893D1*
X13313Y12863D1*
X13349Y12828D1*
X13382Y12790D1*
X13410Y12749D1*
X13433Y12705D1*
X13452Y12658D1*
X13466Y12610D1*
X13475Y12561D1*
X13479Y12500D1*
X13477Y12450D1*
Y13450D2*
X13469Y13401D1*
X13456Y13352D1*
X13438Y13306D1*
X13416Y13261D1*
X13388Y13219D1*
X13357Y13180D1*
X13322Y13145D1*
X13283Y13113D1*
X13241Y13086D1*
X13197Y13063D1*
X13150Y13045D1*
X13102Y13032D1*
X13053Y13024D1*
X13003Y13021D1*
X12953Y13023D1*
X12904Y13031D1*
X12855Y13043D1*
X12808Y13061D1*
X12764Y13083D1*
X12722Y13110D1*
X12682Y13141D1*
X12647Y13176D1*
X12615Y13215D1*
X12587Y13256D1*
X12564Y13301D1*
X12546Y13347D1*
X12532Y13395D1*
X12524Y13444D1*
X12521Y13494D1*
X12523Y13544D1*
X12530Y13594D1*
X12542Y13642D1*
X12560Y13689D1*
X12582Y13734D1*
X12608Y13776D1*
X12639Y13815D1*
X12674Y13851D1*
X12712Y13883D1*
X12754Y13911D1*
X12798Y13935D1*
X12844Y13953D1*
X12892Y13967D1*
X12942Y13976D1*
X12991Y13979D1*
X13041Y13977D1*
X13091Y13971D1*
X13139Y13959D1*
X13186Y13942D1*
X13231Y13920D1*
X13274Y13893D1*
X13313Y13863D1*
X13349Y13828D1*
X13382Y13790D1*
X13410Y13749D1*
X13433Y13705D1*
X13452Y13658D1*
X13466Y13610D1*
X13475Y13561D1*
X13479Y13500D1*
X13477Y13450D1*
Y14450D2*
X13469Y14401D1*
X13456Y14352D1*
X13438Y14306D1*
X13416Y14261D1*
X13388Y14219D1*
X13357Y14180D1*
X13322Y14145D1*
X13283Y14113D1*
X13241Y14086D1*
X13197Y14063D1*
X13150Y14045D1*
X13102Y14032D1*
X13053Y14024D1*
X13003Y14021D1*
X12953Y14023D1*
X12904Y14031D1*
X12855Y14043D1*
X12808Y14061D1*
X12764Y14083D1*
X12722Y14110D1*
X12682Y14141D1*
X12647Y14176D1*
X12615Y14215D1*
X12587Y14256D1*
X12564Y14301D1*
X12546Y14347D1*
X12532Y14395D1*
X12524Y14444D1*
X12521Y14494D1*
X12523Y14544D1*
X12530Y14594D1*
X12542Y14642D1*
X12560Y14689D1*
X12582Y14734D1*
X12608Y14776D1*
X12639Y14815D1*
X12674Y14851D1*
X12712Y14883D1*
X12754Y14911D1*
X12798Y14935D1*
X12844Y14953D1*
X12892Y14967D1*
X12942Y14976D1*
X12991Y14979D1*
X13041Y14977D1*
X13091Y14971D1*
X13139Y14959D1*
X13186Y14942D1*
X13231Y14920D1*
X13274Y14893D1*
X13313Y14863D1*
X13349Y14828D1*
X13382Y14790D1*
X13410Y14749D1*
X13433Y14705D1*
X13452Y14658D1*
X13466Y14610D1*
X13475Y14561D1*
X13479Y14500D1*
X13477Y14450D1*
Y15450D2*
X13469Y15401D1*
X13456Y15352D1*
X13438Y15306D1*
X13416Y15261D1*
X13388Y15219D1*
X13357Y15180D1*
X13322Y15145D1*
X13283Y15113D1*
X13241Y15086D1*
X13197Y15063D1*
X13150Y15045D1*
X13102Y15032D1*
X13053Y15024D1*
X13003Y15021D1*
X12953Y15023D1*
X12904Y15031D1*
X12855Y15043D1*
X12808Y15061D1*
X12764Y15083D1*
X12722Y15110D1*
X12682Y15141D1*
X12647Y15176D1*
X12615Y15215D1*
X12587Y15256D1*
X12564Y15301D1*
X12546Y15347D1*
X12532Y15395D1*
X12524Y15444D1*
X12521Y15494D1*
X12523Y15544D1*
X12530Y15594D1*
X12542Y15642D1*
X12560Y15689D1*
X12582Y15734D1*
X12608Y15776D1*
X12639Y15815D1*
X12674Y15851D1*
X12712Y15883D1*
X12754Y15911D1*
X12798Y15935D1*
X12844Y15953D1*
X12892Y15967D1*
X12942Y15976D1*
X12991Y15979D1*
X13041Y15977D1*
X13091Y15971D1*
X13139Y15959D1*
X13186Y15942D1*
X13231Y15920D1*
X13274Y15893D1*
X13313Y15863D1*
X13349Y15828D1*
X13382Y15790D1*
X13410Y15749D1*
X13433Y15705D1*
X13452Y15658D1*
X13466Y15610D1*
X13475Y15561D1*
X13479Y15500D1*
X13477Y15450D1*
Y18450D2*
X13469Y18401D1*
X13456Y18352D1*
X13438Y18306D1*
X13416Y18261D1*
X13388Y18219D1*
X13357Y18180D1*
X13322Y18145D1*
X13283Y18113D1*
X13241Y18086D1*
X13197Y18063D1*
X13150Y18045D1*
X13102Y18032D1*
X13053Y18024D1*
X13003Y18021D1*
X12953Y18023D1*
X12904Y18031D1*
X12855Y18043D1*
X12808Y18061D1*
X12764Y18083D1*
X12722Y18110D1*
X12682Y18141D1*
X12647Y18176D1*
X12615Y18215D1*
X12587Y18256D1*
X12564Y18301D1*
X12546Y18347D1*
X12532Y18395D1*
X12524Y18444D1*
X12521Y18494D1*
X12523Y18544D1*
X12530Y18594D1*
X12542Y18642D1*
X12560Y18689D1*
X12582Y18734D1*
X12608Y18776D1*
X12639Y18815D1*
X12674Y18851D1*
X12712Y18883D1*
X12754Y18911D1*
X12798Y18935D1*
X12844Y18953D1*
X12892Y18967D1*
X12942Y18976D1*
X12991Y18979D1*
X13041Y18977D1*
X13091Y18971D1*
X13139Y18959D1*
X13186Y18942D1*
X13231Y18920D1*
X13274Y18893D1*
X13313Y18863D1*
X13349Y18828D1*
X13382Y18790D1*
X13410Y18749D1*
X13433Y18705D1*
X13452Y18658D1*
X13466Y18610D1*
X13475Y18561D1*
X13479Y18500D1*
X13477Y18450D1*
Y19450D2*
X13469Y19401D1*
X13456Y19352D1*
X13438Y19306D1*
X13416Y19261D1*
X13388Y19219D1*
X13357Y19180D1*
X13322Y19145D1*
X13283Y19113D1*
X13241Y19086D1*
X13197Y19063D1*
X13150Y19045D1*
X13102Y19032D1*
X13053Y19024D1*
X13003Y19021D1*
X12953Y19023D1*
X12904Y19031D1*
X12855Y19043D1*
X12808Y19061D1*
X12764Y19083D1*
X12722Y19110D1*
X12682Y19141D1*
X12647Y19176D1*
X12615Y19215D1*
X12587Y19256D1*
X12564Y19301D1*
X12546Y19347D1*
X12532Y19395D1*
X12524Y19444D1*
X12521Y19494D1*
X12523Y19544D1*
X12530Y19594D1*
X12542Y19642D1*
X12560Y19689D1*
X12582Y19734D1*
X12608Y19776D1*
X12639Y19815D1*
X12674Y19851D1*
X12712Y19883D1*
X12754Y19911D1*
X12798Y19935D1*
X12844Y19953D1*
X12892Y19967D1*
X12942Y19976D1*
X12991Y19979D1*
X13041Y19977D1*
X13091Y19971D1*
X13139Y19959D1*
X13186Y19942D1*
X13231Y19920D1*
X13274Y19893D1*
X13313Y19863D1*
X13349Y19828D1*
X13382Y19790D1*
X13410Y19749D1*
X13433Y19705D1*
X13452Y19658D1*
X13466Y19610D1*
X13475Y19561D1*
X13479Y19500D1*
X13477Y19450D1*
Y20450D2*
X13469Y20401D1*
X13456Y20352D1*
X13438Y20306D1*
X13416Y20261D1*
X13388Y20219D1*
X13357Y20180D1*
X13322Y20145D1*
X13283Y20113D1*
X13241Y20086D1*
X13197Y20063D1*
X13150Y20045D1*
X13102Y20032D1*
X13053Y20024D1*
X13003Y20021D1*
X12953Y20023D1*
X12904Y20031D1*
X12855Y20043D1*
X12808Y20061D1*
X12764Y20083D1*
X12722Y20110D1*
X12682Y20141D1*
X12647Y20176D1*
X12615Y20215D1*
X12587Y20256D1*
X12564Y20301D1*
X12546Y20347D1*
X12532Y20395D1*
X12524Y20444D1*
X12521Y20494D1*
X12523Y20544D1*
X12530Y20594D1*
X12542Y20642D1*
X12560Y20689D1*
X12582Y20734D1*
X12608Y20776D1*
X12639Y20815D1*
X12674Y20851D1*
X12712Y20883D1*
X12754Y20911D1*
X12798Y20935D1*
X12844Y20953D1*
X12892Y20967D1*
X12942Y20976D1*
X12991Y20979D1*
X13041Y20977D1*
X13091Y20971D1*
X13139Y20959D1*
X13186Y20942D1*
X13231Y20920D1*
X13274Y20893D1*
X13313Y20863D1*
X13349Y20828D1*
X13382Y20790D1*
X13410Y20749D1*
X13433Y20705D1*
X13452Y20658D1*
X13466Y20610D1*
X13475Y20561D1*
X13479Y20500D1*
X13477Y20450D1*
X6477D2*
X6469Y20401D1*
X6456Y20352D1*
X6438Y20306D1*
X6416Y20261D1*
X6388Y20219D1*
X6357Y20180D1*
X6322Y20145D1*
X6283Y20113D1*
X6241Y20086D1*
X6197Y20063D1*
X6150Y20045D1*
X6102Y20032D1*
X6053Y20024D1*
X6003Y20021D1*
X5953Y20023D1*
X5904Y20031D1*
X5855Y20043D1*
X5808Y20061D1*
X5764Y20083D1*
X5722Y20110D1*
X5682Y20141D1*
X5647Y20176D1*
X5615Y20215D1*
X5587Y20256D1*
X5564Y20301D1*
X5546Y20347D1*
X5532Y20395D1*
X5524Y20444D1*
X5521Y20494D1*
X5523Y20544D1*
X5530Y20594D1*
X5542Y20642D1*
X5560Y20689D1*
X5582Y20734D1*
X5608Y20776D1*
X5639Y20815D1*
X5674Y20851D1*
X5712Y20883D1*
X5754Y20911D1*
X5798Y20935D1*
X5844Y20953D1*
X5892Y20967D1*
X5942Y20976D1*
X5991Y20979D1*
X6041Y20977D1*
X6091Y20971D1*
X6139Y20959D1*
X6186Y20942D1*
X6231Y20920D1*
X6274Y20893D1*
X6313Y20863D1*
X6349Y20828D1*
X6382Y20790D1*
X6410Y20749D1*
X6433Y20705D1*
X6452Y20658D1*
X6466Y20610D1*
X6475Y20561D1*
X6479Y20500D1*
X6477Y20450D1*
Y19450D2*
X6469Y19401D1*
X6456Y19352D1*
X6438Y19306D1*
X6416Y19261D1*
X6388Y19219D1*
X6357Y19180D1*
X6322Y19145D1*
X6283Y19113D1*
X6241Y19086D1*
X6197Y19063D1*
X6150Y19045D1*
X6102Y19032D1*
X6053Y19024D1*
X6003Y19021D1*
X5953Y19023D1*
X5904Y19031D1*
X5855Y19043D1*
X5808Y19061D1*
X5764Y19083D1*
X5722Y19110D1*
X5682Y19141D1*
X5647Y19176D1*
X5615Y19215D1*
X5587Y19256D1*
X5564Y19301D1*
X5546Y19347D1*
X5532Y19395D1*
X5524Y19444D1*
X5521Y19494D1*
X5523Y19544D1*
X5530Y19594D1*
X5542Y19642D1*
X5560Y19689D1*
X5582Y19734D1*
X5608Y19776D1*
X5639Y19815D1*
X5674Y19851D1*
X5712Y19883D1*
X5754Y19911D1*
X5798Y19935D1*
X5844Y19953D1*
X5892Y19967D1*
X5942Y19976D1*
X5991Y19979D1*
X6041Y19977D1*
X6091Y19971D1*
X6139Y19959D1*
X6186Y19942D1*
X6231Y19920D1*
X6274Y19893D1*
X6313Y19863D1*
X6349Y19828D1*
X6382Y19790D1*
X6410Y19749D1*
X6433Y19705D1*
X6452Y19658D1*
X6466Y19610D1*
X6475Y19561D1*
X6479Y19500D1*
X6477Y19450D1*
Y11450D2*
X6469Y11401D1*
X6456Y11352D1*
X6438Y11306D1*
X6416Y11261D1*
X6388Y11219D1*
X6357Y11180D1*
X6322Y11145D1*
X6283Y11113D1*
X6241Y11086D1*
X6197Y11063D1*
X6150Y11045D1*
X6102Y11032D1*
X6053Y11024D1*
X6003Y11021D1*
X5953Y11023D1*
X5904Y11031D1*
X5855Y11043D1*
X5808Y11061D1*
X5764Y11083D1*
X5722Y11110D1*
X5682Y11141D1*
X5647Y11176D1*
X5615Y11215D1*
X5587Y11256D1*
X5564Y11301D1*
X5546Y11347D1*
X5532Y11395D1*
X5524Y11444D1*
X5521Y11494D1*
X5523Y11544D1*
X5530Y11594D1*
X5542Y11642D1*
X5560Y11689D1*
X5582Y11734D1*
X5608Y11776D1*
X5639Y11815D1*
X5674Y11851D1*
X5712Y11883D1*
X5754Y11911D1*
X5798Y11935D1*
X5844Y11953D1*
X5892Y11967D1*
X5942Y11976D1*
X5991Y11979D1*
X6041Y11977D1*
X6091Y11971D1*
X6139Y11959D1*
X6186Y11942D1*
X6231Y11920D1*
X6274Y11893D1*
X6313Y11863D1*
X6349Y11828D1*
X6382Y11790D1*
X6410Y11749D1*
X6433Y11705D1*
X6452Y11658D1*
X6466Y11610D1*
X6475Y11561D1*
X6479Y11500D1*
X6477Y11450D1*
Y10450D2*
X6469Y10401D1*
X6456Y10352D1*
X6438Y10306D1*
X6416Y10261D1*
X6388Y10219D1*
X6357Y10180D1*
X6322Y10145D1*
X6283Y10113D1*
X6241Y10086D1*
X6197Y10063D1*
X6150Y10045D1*
X6102Y10032D1*
X6053Y10024D1*
X6003Y10021D1*
X5953Y10023D1*
X5904Y10031D1*
X5855Y10043D1*
X5808Y10061D1*
X5764Y10083D1*
X5722Y10110D1*
X5682Y10141D1*
X5647Y10176D1*
X5615Y10215D1*
X5587Y10256D1*
X5564Y10301D1*
X5546Y10347D1*
X5532Y10395D1*
X5524Y10444D1*
X5521Y10494D1*
X5523Y10544D1*
X5530Y10594D1*
X5542Y10642D1*
X5560Y10689D1*
X5582Y10734D1*
X5608Y10776D1*
X5639Y10815D1*
X5674Y10851D1*
X5712Y10883D1*
X5754Y10911D1*
X5798Y10935D1*
X5844Y10953D1*
X5892Y10967D1*
X5942Y10976D1*
X5991Y10979D1*
X6041Y10977D1*
X6091Y10971D1*
X6139Y10959D1*
X6186Y10942D1*
X6231Y10920D1*
X6274Y10893D1*
X6313Y10863D1*
X6349Y10828D1*
X6382Y10790D1*
X6410Y10749D1*
X6433Y10705D1*
X6452Y10658D1*
X6466Y10610D1*
X6475Y10561D1*
X6479Y10500D1*
X6477Y10450D1*
X1323Y4395D2*
X2279Y3439D1*
Y4395D2*
X1323Y3439D1*
Y16206D2*
X2279Y15250D1*
Y16206D2*
X1323Y15250D1*
Y20143D2*
X2279Y19187D1*
Y20143D2*
X1323Y19187D1*
X14500Y1000D2*
X15019Y481D1*
Y1519D2*
X13981Y481D1*
X15008Y17492D2*
X15742Y16758D1*
Y17492D2*
X15008Y16758D1*
X12661Y11839D2*
X13339Y11161D1*
Y11839D2*
X12661Y11161D1*
X6000Y13500D2*
X6339Y13161D1*
X6657Y3093D2*
X7051Y2699D1*
X7446Y3093D2*
X7051Y2699D1*
D23*
X1801Y1949D3*
D24*
Y3917D3*
Y5886D3*
Y7854D3*
Y9823D3*
Y11791D3*
Y13760D3*
Y15728D3*
Y17697D3*
Y19665D3*
D25*
X14500Y1000D3*
D26*
X13500D3*
X12500D3*
X11500D3*
X10500D3*
X9500D3*
X8500D3*
X7500D3*
X6500D3*
X5500D3*
D25*
X15375Y14125D3*
D26*
Y15125D3*
Y16125D3*
Y17125D3*
D27*
X13331Y2919D3*
D28*
Y5478D3*
D31*
X13000Y10500D3*
Y11500D3*
Y12500D3*
Y13500D3*
Y14500D3*
Y15500D3*
Y16500D3*
Y17500D3*
Y18500D3*
Y19500D3*
Y20500D3*
Y21500D3*
X6000D3*
Y20500D3*
Y19500D3*
Y18500D3*
Y17500D3*
Y16500D3*
Y15500D3*
Y14500D3*
Y13500D3*
Y12500D3*
Y11500D3*
Y10500D3*
D32*
X6051Y2699D3*
D33*
X7051D3*
X8051D3*
X15939Y3098D2*
D62*
X16542D1*
X15939Y2869D1*
X16542Y2639D1*
X15939D1*
Y3743D2*
X16542Y3513D1*
X15939Y3283D1*
X16140Y3369D2*
Y3657D1*
X16542Y3928D2*
X15939D1*
X16542Y4330D2*
X16140Y3928D1*
X16284Y4071D2*
X15939Y4330D1*
X16542Y4888D2*
Y4515D1*
X15939D1*
Y4888D1*
X16255Y4515D2*
Y4745D1*
X16542Y5073D2*
X15939D1*
Y5418D1*
Y6062D2*
X16542Y5832D1*
X15939Y5603D1*
X16140Y5689D2*
Y5976D1*
X16542Y6248D2*
X15939D1*
Y6506D1*
X15968Y6593D1*
X15997Y6621D1*
X16054Y6650D1*
X16140D1*
X16198Y6621D1*
X16226Y6593D1*
X16255Y6506D1*
X16284Y6593D1*
X16312Y6621D1*
X16369Y6650D1*
X16427D1*
X16484Y6621D1*
X16513Y6593D1*
X16542Y6506D1*
Y6248D1*
X16255D2*
Y6506D1*
X16240Y6835D2*
Y7167D1*
X16399Y7782D2*
X16456Y7754D1*
X16513Y7696D1*
X16542Y7639D1*
Y7524D1*
X16513Y7467D1*
X16456Y7410D1*
X16399Y7380D1*
X16312Y7352D1*
X16168D1*
X16083Y7380D1*
X16025Y7410D1*
X15968Y7467D1*
X15939Y7524D1*
Y7639D1*
X15968Y7696D1*
X16025Y7754D1*
X16083Y7782D1*
X16542Y7968D2*
X15939D1*
X16542Y8369D2*
X15939D1*
X16255Y7968D2*
Y8369D1*
X15939Y9014D2*
X16542Y8784D1*
X15939Y8555D1*
X16140Y8641D2*
Y8928D1*
X16456Y9602D2*
X16513Y9544D1*
X16542Y9458D1*
Y9344D1*
X16513Y9257D1*
X16456Y9200D1*
X16399D1*
X16341Y9229D1*
X16312Y9257D1*
X16284Y9314D1*
X16226Y9487D1*
X16198Y9544D1*
X16168Y9573D1*
X16111Y9602D1*
X16025D1*
X15968Y9544D1*
X15939Y9458D1*
Y9344D1*
X15968Y9257D1*
X16025Y9200D1*
X16542Y10571D2*
X15939D1*
X16542Y10370D2*
Y10772D1*
Y11130D2*
X16513Y11072D1*
X16456Y11015D1*
X16399Y10986D1*
X16312Y10957D1*
X16168D1*
X16083Y10986D1*
X16025Y11015D1*
X15968Y11072D1*
X15939Y11130D1*
Y11244D1*
X15968Y11301D1*
X16025Y11359D1*
X16083Y11388D1*
X16168Y11416D1*
X16312D1*
X16399Y11388D1*
X16456Y11359D1*
X16513Y11301D1*
X16542Y11244D1*
Y11130D1*
X15939Y12061D2*
X16542Y11831D1*
X15939Y11601D1*
X16140Y11688D2*
Y11975D1*
X16456Y12648D2*
X16513Y12591D1*
X16542Y12505D1*
Y12390D1*
X16513Y12304D1*
X16456Y12246D1*
X16399D1*
X16341Y12276D1*
X16312Y12304D1*
X16284Y12361D1*
X16226Y12534D1*
X16198Y12591D1*
X16168Y12620D1*
X16111Y12648D1*
X16025D1*
X15968Y12591D1*
X15939Y12505D1*
Y12390D1*
X15968Y12304D1*
X16025Y12246D1*
X16542Y13034D2*
X15939D1*
X16542Y12834D2*
Y13235D1*
Y13421D2*
X16255Y13650D1*
X15939D1*
X16542Y13880D2*
X16255Y13650D1*
M02*
